<svg xmlns="http://www.w3.org/2000/svg" width="228" height="28.353" viewBox="0 0 228 28.353"><defs><style>.a{fill:#fff;}.b{fill:none;stroke:#fff;stroke-miterlimit:10;stroke-width:1.2px;}</style></defs><g transform="translate(-0.001 0.005)"><g transform="translate(0.001 -0.005)"><rect class="a" width="15.042" height="1.217" transform="matrix(0.668, -0.744, 0.744, 0.668, 10.087, 20.254)"/><rect class="a" width="15.042" height="1.217" transform="translate(8.406 18.741) rotate(-48.06)"/><rect class="a" width="15.042" height="1.217" transform="translate(6.726 17.229) rotate(-48.04)"/><rect class="a" width="15.042" height="1.217" transform="matrix(0.668, -0.744, 0.744, 0.668, 5.045, 15.719)"/><rect class="a" width="15.042" height="1.217" transform="translate(3.364 14.206) rotate(-48.04)"/><rect class="a" width="15.042" height="1.217" transform="translate(1.68 12.697) rotate(-48.04)"/><rect class="a" width="15.042" height="1.217" transform="translate(0 11.185) rotate(-48.04)"/><rect class="a" width="15.042" height="0.604" transform="matrix(0.668, -0.744, 0.744, 0.668, 20.525, 20.554)"/><rect class="a" width="15.042" height="0.604" transform="matrix(0.668, -0.744, 0.744, 0.668, 18.843, 19.041)"/><rect class="a" width="15.042" height="0.604" transform="matrix(0.668, -0.744, 0.744, 0.668, 17.164, 17.532)"/><rect class="a" width="15.042" height="0.604" transform="translate(15.48 16.017) rotate(-48.06)"/><rect class="a" width="15.042" height="0.604" transform="matrix(0.668, -0.744, 0.744, 0.668, 13.804, 14.509)"/><rect class="a" width="15.042" height="0.604" transform="matrix(0.668, -0.744, 0.744, 0.668, 12.126, 13.001)"/><rect class="a" width="15.042" height="0.604" transform="matrix(0.668, -0.744, 0.744, 0.668, 10.444, 11.488)"/><path class="a" d="M267.668,76.75l1.89,4.994,1.961-4.994h.8v5.7h-.543V77.525h-.015l-1.946,4.922h-.51l-1.874-4.922h-.015v4.922h-.543v-5.7Z" transform="translate(-198.81 -57.175)"/><path class="a" d="M292.009,85.345a1.516,1.516,0,0,0,.242.51,1.357,1.357,0,0,0,.423.383,1.176,1.176,0,0,0,.615.153,1.227,1.227,0,0,0,.862-.288,1.507,1.507,0,0,0,.428-.765h.51a2.022,2.022,0,0,1-.587,1.084,1.755,1.755,0,0,1-1.209.383,1.913,1.913,0,0,1-.842-.171,1.545,1.545,0,0,1-.584-.459,2.07,2.07,0,0,1-.332-.7,3.164,3.164,0,0,1-.107-.831,3,3,0,0,1,.107-.8,2.183,2.183,0,0,1,.332-.7,1.658,1.658,0,0,1,.579-.495,1.785,1.785,0,0,1,.842-.186,1.681,1.681,0,0,1,.844.2,1.658,1.658,0,0,1,.571.51,2.212,2.212,0,0,1,.316.742,3.264,3.264,0,0,1,.079.849h-3.168A2.2,2.2,0,0,0,292.009,85.345Zm2.489-1.53a1.489,1.489,0,0,0-.255-.467,1.275,1.275,0,0,0-.408-.326,1.166,1.166,0,0,0-.541-.122,1.2,1.2,0,0,0-.551.122,1.275,1.275,0,0,0-.4.321,1.666,1.666,0,0,0-.255.472,2.274,2.274,0,0,0-.133.546h2.665a1.813,1.813,0,0,0-.12-.551Z" transform="translate(-217.106 -61.434)"/><path class="a" d="M311.093,82.447v-.788h-.015a1.231,1.231,0,0,1-.235.367,1.531,1.531,0,0,1-.357.283,1.786,1.786,0,0,1-.426.179,1.622,1.622,0,0,1-.451.064,1.808,1.808,0,0,1-.816-.171,1.63,1.63,0,0,1-.579-.467,2.04,2.04,0,0,1-.344-.7,3.216,3.216,0,0,1,0-1.665,2.039,2.039,0,0,1,.344-.7,1.67,1.67,0,0,1,.579-.474,1.931,1.931,0,0,1,1.275-.12,1.49,1.49,0,0,1,.411.171,1.441,1.441,0,0,1,.339.283,1.189,1.189,0,0,1,.227.39h.015V76.75h.51v5.7Zm-2.762-1.426a1.75,1.75,0,0,0,.24.564,1.371,1.371,0,0,0,.418.4,1.176,1.176,0,0,0,.615.156,1.288,1.288,0,0,0,1.122-.559,1.657,1.657,0,0,0,.255-.564,2.751,2.751,0,0,0,0-1.275,1.644,1.644,0,0,0-.255-.561,1.305,1.305,0,0,0-.446-.4,1.344,1.344,0,0,0-.676-.156,1.152,1.152,0,0,0-.615.156,1.313,1.313,0,0,0-.4.411,1.737,1.737,0,0,0-.24.561,2.751,2.751,0,0,0,0,1.275Z" transform="translate(-229.271 -57.175)"/><path class="a" d="M326.88,76.75v.806h-.51V76.75Zm0,1.581v4.116h-.51v-4.1Z" transform="translate(-243.135 -57.175)"/><path class="a" d="M334.036,83.156a1.092,1.092,0,0,0-.78-.255,1.257,1.257,0,0,0-.63.15,1.413,1.413,0,0,0-.451.4,1.832,1.832,0,0,0-.27.564,2.3,2.3,0,0,0,0,1.275,1.8,1.8,0,0,0,.27.564,1.354,1.354,0,0,0,.451.4,1.26,1.26,0,0,0,.63.153,1.114,1.114,0,0,0,.439-.089,1.18,1.18,0,0,0,.367-.255,1.346,1.346,0,0,0,.255-.37,1.374,1.374,0,0,0,.128-.472h.51a1.89,1.89,0,0,1-.551,1.168,1.607,1.607,0,0,1-1.148.418,1.925,1.925,0,0,1-.834-.171,1.762,1.762,0,0,1-.61-.459,2,2,0,0,1-.375-.689,2.841,2.841,0,0,1,0-1.683,2.013,2.013,0,0,1,.375-.689,1.8,1.8,0,0,1,.61-.469,1.89,1.89,0,0,1,.834-.176,1.8,1.8,0,0,1,1.12.349,1.5,1.5,0,0,1,.548,1.061h-.51A1.387,1.387,0,0,0,334.036,83.156Z" transform="translate(-246.815 -61.434)"/><path class="a" d="M347.771,83.215a1.155,1.155,0,0,1,.347-.431,1.444,1.444,0,0,1,.51-.255,2.476,2.476,0,0,1,.653-.079,3.013,3.013,0,0,1,.543.051,1.323,1.323,0,0,1,.487.2,1.043,1.043,0,0,1,.355.4,1.438,1.438,0,0,1,.135.673v2.186a.255.255,0,0,0,.3.3.37.37,0,0,0,.161-.033v.441l-.156.026a1.625,1.625,0,0,1-.173,0,.732.732,0,0,1-.306-.054.4.4,0,0,1-.179-.148.524.524,0,0,1-.084-.227,2.006,2.006,0,0,1-.02-.291h-.015a3.561,3.561,0,0,1-.275.355,1.361,1.361,0,0,1-.311.255,1.493,1.493,0,0,1-.39.161,2.244,2.244,0,0,1-.523.054,2.131,2.131,0,0,1-.538-.066,1.181,1.181,0,0,1-.439-.217.979.979,0,0,1-.3-.375,1.242,1.242,0,0,1-.107-.538,1.068,1.068,0,0,1,.191-.673,1.186,1.186,0,0,1,.51-.37,2.877,2.877,0,0,1,.714-.186l.8-.1a2.251,2.251,0,0,0,.278-.041.51.51,0,0,0,.2-.082.393.393,0,0,0,.122-.166.673.673,0,0,0,.043-.27.91.91,0,0,0-.084-.418.65.65,0,0,0-.23-.255.931.931,0,0,0-.344-.13,2.187,2.187,0,0,0-.418-.036,1.255,1.255,0,0,0-.78.227.89.89,0,0,0-.321.729h-.51a1.678,1.678,0,0,1,.153-.62Zm2.512,1.229a.293.293,0,0,1-.184.128c-.089.026-.171.043-.24.056q-.319.054-.658.1a3.507,3.507,0,0,0-.617.13,1.206,1.206,0,0,0-.459.255.6.6,0,0,0-.178.467.729.729,0,0,0,.074.339.857.857,0,0,0,.2.255.9.9,0,0,0,.3.163,1.043,1.043,0,0,0,.342.056,1.732,1.732,0,0,0,.551-.089,1.341,1.341,0,0,0,.459-.255,1.2,1.2,0,0,0,.426-.949v-.655Z" transform="translate(-258.834 -61.421)"/><path class="a" d="M365.04,76.75v5.7h-.51v-5.7Z" transform="translate(-271.563 -57.175)"/><path class="a" d="M382.558,77.53a1.588,1.588,0,0,0-.4-.434,1.752,1.752,0,0,0-.51-.268,1.918,1.918,0,0,0-.589-.092,2.073,2.073,0,0,0-.974.214,1.956,1.956,0,0,0-.666.571,2.5,2.5,0,0,0-.383.8,3.487,3.487,0,0,0,0,1.831,2.476,2.476,0,0,0,.383.806,1.956,1.956,0,0,0,.666.571,2.073,2.073,0,0,0,.974.214,1.765,1.765,0,0,0,.719-.143,1.732,1.732,0,0,0,.548-.39,1.983,1.983,0,0,0,.375-.579,2.355,2.355,0,0,0,.184-.714h.543a3.1,3.1,0,0,1-.255.949,2.356,2.356,0,0,1-.495.719,2.122,2.122,0,0,1-.714.454,2.486,2.486,0,0,1-.913.158,2.668,2.668,0,0,1-1.176-.255,2.438,2.438,0,0,1-.857-.643,2.7,2.7,0,0,1-.51-.941,3.841,3.841,0,0,1,0-2.249,2.764,2.764,0,0,1,.51-.946,2.415,2.415,0,0,1,.842-.653,2.877,2.877,0,0,1,1.969-.125,2.3,2.3,0,0,1,.7.357,2.04,2.04,0,0,1,.528.576,1.977,1.977,0,0,1,.268.791h-.533A1.9,1.9,0,0,0,382.558,77.53Z" transform="translate(-281.851 -56.817)"/><path class="a" d="M400.946,85.345a1.53,1.53,0,0,0,.255.51,1.374,1.374,0,0,0,.421.383,1.176,1.176,0,0,0,.615.153,1.222,1.222,0,0,0,.844-.275,1.51,1.51,0,0,0,.431-.765h.51a2,2,0,0,1-.587,1.084,1.744,1.744,0,0,1-1.209.383,1.913,1.913,0,0,1-.842-.171,1.556,1.556,0,0,1-.576-.472,2.026,2.026,0,0,1-.332-.7,3.161,3.161,0,0,1-.107-.831,3,3,0,0,1,.107-.8,2.13,2.13,0,0,1,.332-.7,1.673,1.673,0,0,1,.576-.495,1.785,1.785,0,0,1,.842-.186,1.691,1.691,0,0,1,.847.2,1.648,1.648,0,0,1,.569.51,2.118,2.118,0,0,1,.316.742,3.263,3.263,0,0,1,.079.849h-3.165A2.311,2.311,0,0,0,400.946,85.345Zm2.489-1.53a1.529,1.529,0,0,0-.255-.467,1.275,1.275,0,0,0-.408-.326,1.176,1.176,0,0,0-.543-.122,1.2,1.2,0,0,0-.551.122,1.3,1.3,0,0,0-.405.326,1.613,1.613,0,0,0-.255.472,2.271,2.271,0,0,0-.13.546h2.663a1.811,1.811,0,0,0-.115-.556Z" transform="translate(-298.263 -61.434)"/><path class="a" d="M417.913,82.647v.709h.018a1.191,1.191,0,0,1,.51-.6,1.509,1.509,0,0,1,.806-.227,1.987,1.987,0,0,1,.722.112,1.143,1.143,0,0,1,.467.314,1.2,1.2,0,0,1,.255.51,2.894,2.894,0,0,1,.071.661v2.627h-.51V84.177a2.5,2.5,0,0,0-.048-.492,1.044,1.044,0,0,0-.168-.4.821.821,0,0,0-.321-.255,1.2,1.2,0,0,0-.51-.094,1.275,1.275,0,0,0-.538.107,1.164,1.164,0,0,0-.4.3,1.392,1.392,0,0,0-.255.446,1.784,1.784,0,0,0-.1.561v2.4h-.51V82.647Z" transform="translate(-310.949 -61.478)"/><path class="a" d="M434.728,79.35v.423h-.837v2.762a.94.94,0,0,0,.066.388c.046.092.158.143.339.156a4.032,4.032,0,0,0,.431-.025v.423h-.446a.74.74,0,0,1-.893-.916V79.755h-.719V79.35h.719V78.1h.51v1.25Z" transform="translate(-322.325 -58.181)"/><path class="a" d="M443.419,85.343a1.47,1.47,0,0,0,.242.51,1.357,1.357,0,0,0,.423.383,1.175,1.175,0,0,0,.615.153,1.219,1.219,0,0,0,.859-.288,1.492,1.492,0,0,0,.431-.765h.51a1.989,1.989,0,0,1-.587,1.084,1.742,1.742,0,0,1-1.206.383,1.9,1.9,0,0,1-.842-.171,1.546,1.546,0,0,1-.587-.459,2.071,2.071,0,0,1-.332-.7,3.162,3.162,0,0,1-.107-.831,3,3,0,0,1,.107-.8,2.183,2.183,0,0,1,.332-.7,1.658,1.658,0,0,1,.579-.495,1.768,1.768,0,0,1,.842-.186,1.627,1.627,0,0,1,1.415.722,2.16,2.16,0,0,1,.314.742,3.268,3.268,0,0,1,.082.849h-3.167a2.2,2.2,0,0,0,.077.564Zm2.487-1.53a1.485,1.485,0,0,0-.255-.467,1.276,1.276,0,0,0-.408-.326,1.165,1.165,0,0,0-.541-.122,1.186,1.186,0,0,0-.551.122,1.275,1.275,0,0,0-.408.326,1.6,1.6,0,0,0-.255.472,2.161,2.161,0,0,0-.133.546h2.665a1.9,1.9,0,0,0-.115-.556Z" transform="translate(-329.901 -61.433)"/><path class="a" d="M460.389,82.827v.964h.015a1.586,1.586,0,0,1,.594-.765,1.563,1.563,0,0,1,.961-.255v.51a1.53,1.53,0,0,0-.622.092,1.365,1.365,0,0,0-.8.78,1.557,1.557,0,0,0-.112.6v2.193h-.51V82.827Z" transform="translate(-342.625 -61.658)"/><path class="a" d="M146.491,17.088c.023-.043.048-.089.077-.135a.255.255,0,0,1,.145-.1,1.786,1.786,0,0,1,.273-.061,3.347,3.347,0,0,1,.48-.026h.36l.477-.018c.171,0,.344-.013.51-.026l.487-.033a1.415,1.415,0,0,1,.033.273q0,.273-.168.291a2.068,2.068,0,0,0-.821.23.451.451,0,0,0-.2.385s0,.161.026.451.043.765.076,1.451.077,1.581.128,2.708.112,2.527.179,4.2a.615.615,0,0,0,.222.479,2.142,2.142,0,0,0,.839.255.179.179,0,0,1,.128.094.362.362,0,0,1,.043.179,1.456,1.456,0,0,1-.036.273l-1.084-.059c-.324-.018-.622-.026-.9-.026h-.426l-.538.018a4.02,4.02,0,0,0-.556.026l-.477.033a1.415,1.415,0,0,1-.033-.273c0-.181.056-.273.171-.273a3.645,3.645,0,0,0,.928-.273.485.485,0,0,0,.255-.462c0-.033,0-.255-.026-.632s-.041-.859-.069-1.415-.059-1.163-.087-1.811-.056-1.262-.084-1.836-.054-1.071-.077-1.487-.036-.668-.036-.765l-3.734,9.041a1.249,1.249,0,0,1-.128.23.2.2,0,0,1-.163.077.388.388,0,0,1-.153-.018l-4.185-9.6c0,.115-.026.39-.043.829s-.038.959-.066,1.563-.061,1.239-.094,1.913-.066,1.29-.094,1.862-.051,1.046-.069,1.433-.026.592-.026.615q0,.528,1.16.734c.115,0,.171.1.171.273a1.416,1.416,0,0,1-.033.273c-.309-.023-.61-.041-.905-.059s-.559-.026-.786-.026c-.181,0-.426,0-.735.026s-.6.036-.87.059a1.454,1.454,0,0,1-.036-.273c0-.158.056-.255.171-.273a2.336,2.336,0,0,0,.742-.255.6.6,0,0,0,.316-.487c0-.1,0-.39.036-.862s.048-1.02.077-1.683.059-1.336.094-2.066l.092-2.022q.046-.933.069-1.53c.018-.406.026-.612.026-.625a.439.439,0,0,0-.212-.4,2.627,2.627,0,0,0-.811-.23c-.115-.013-.171-.11-.171-.291a1.416,1.416,0,0,1,.033-.273l.51.033c.186.013.375.02.561.026l.528.023h.411a3.347,3.347,0,0,1,.479.026,1.785,1.785,0,0,1,.273.061.255.255,0,0,1,.145.1c.028.046.054.092.077.135l3.66,8.526Z" transform="translate(-101.256 -12.425)"/><path class="a" d="M201.577,38.414c.128,0,.194.12.207.36a1.946,1.946,0,0,1-1.127.306,1.765,1.765,0,0,1-.655-.11,1.377,1.377,0,0,1-.467-.3,1.314,1.314,0,0,1-.293-.426,1.858,1.858,0,0,1-.14-.495,2.385,2.385,0,0,1-1.02,1.051,3.129,3.129,0,0,1-1.357.281,4.943,4.943,0,0,1-.727-.059,2.252,2.252,0,0,1-.727-.255,1.571,1.571,0,0,1-.561-.53,1.62,1.62,0,0,1-.224-.905,1.836,1.836,0,0,1,.3-1.066,2.441,2.441,0,0,1,.765-.719,4.771,4.771,0,0,1,1.02-.451c.37-.115.724-.212,1.066-.291.194-.033.372-.071.538-.11a4.161,4.161,0,0,0,.436-.13.454.454,0,0,0,.3-.186,1.158,1.158,0,0,0,.061-.462,2.581,2.581,0,0,0-.309-1.324,1.169,1.169,0,0,0-1.094-.51,1.66,1.66,0,0,0-.495.066.832.832,0,0,0-.342.214,1.291,1.291,0,0,0-.237.385,5.926,5.926,0,0,0-.207.564.4.4,0,0,1-.23.273,4.242,4.242,0,0,1-.607.2c-.069.023-.153.046-.255.069a1.2,1.2,0,0,1-.255.033c-.112,0-.171-.117-.171-.357a1.229,1.229,0,0,1,.291-.752,2.943,2.943,0,0,1,.752-.673,4.521,4.521,0,0,1,.982-.469,3.152,3.152,0,0,1,1.02-.179,5.126,5.126,0,0,1,1.076.1,1.951,1.951,0,0,1,.824.38,1.729,1.729,0,0,1,.51.734,3.344,3.344,0,0,1,.181,1.2V36.81a6.125,6.125,0,0,0,.043.862,1.311,1.311,0,0,0,.128.418.694.694,0,0,0,.255.316.633.633,0,0,0,.3.077.709.709,0,0,0,.255-.036A.385.385,0,0,1,201.577,38.414Zm-2.594-3.331-.543.084c-.3.056-.587.125-.867.2a2.665,2.665,0,0,0-.747.334,1.678,1.678,0,0,0-.525.538,1.53,1.53,0,0,0-.2.8,1.369,1.369,0,0,0,.334.992,1.127,1.127,0,0,0,.834.342,1.551,1.551,0,0,0,.645-.145,1.632,1.632,0,0,0,.548-.411,2.17,2.17,0,0,0,.37-.615,2.04,2.04,0,0,0,.148-.786Z" transform="translate(-144.883 -23.435)"/><path class="a" d="M227.591,27.612h-.6c-.2,0-.385.015-.556.026s-.319.023-.444.036l-.24.015a1.066,1.066,0,0,0-.018-.12,1.09,1.09,0,0,1-.015-.153.186.186,0,0,1,.153-.2,3.417,3.417,0,0,0,.717-.207.4.4,0,0,0,.273-.393V21.975a1.176,1.176,0,0,0-.179-.734,1.113,1.113,0,0,0-.765-.273.224.224,0,0,1-.222-.24.979.979,0,0,1,.036-.222,6.155,6.155,0,0,0,.622-.026c.268-.026.487-.036.658-.059.255-.046.51-.094.709-.145a2.148,2.148,0,0,1,.449-.077.229.229,0,0,1,.255.255,3.955,3.955,0,0,1-.051.571,5.822,5.822,0,0,0-.051.88v4.713a.4.4,0,0,0,.255.393,3.234,3.234,0,0,0,.742.207.181.181,0,0,1,.135.2q0,.054,0,.153a.256.256,0,0,1-.026.12l-.23-.015c-.12-.013-.255-.023-.436-.036s-.357-.02-.559-.026Zm-1-10.265a1,1,0,0,1,.283-.709.928.928,0,0,1,.706-.3.885.885,0,0,1,.683.3,1.02,1.02,0,0,1,.275.709.964.964,0,0,1-.275.717.918.918,0,0,1-.683.275.967.967,0,0,1-.706-.275A.949.949,0,0,1,226.591,17.346Z" transform="translate(-168.138 -12.171)"/><path class="a" d="M250.545,33.166a3.186,3.186,0,0,0,.309-.316,4.771,4.771,0,0,1,.627-.581,5.171,5.171,0,0,1,.89-.564,2.369,2.369,0,0,1,1.089-.255,1.674,1.674,0,0,1,1.456.6,2.884,2.884,0,0,1,.428,1.683v4.142a.416.416,0,0,0,.321.385,3.388,3.388,0,0,0,.681.2.186.186,0,0,1,.156.2,1.458,1.458,0,0,1-.036.273c-.3-.023-.587-.041-.872-.059s-.594-.025-.928-.025-.6,0-.913.025-.6.036-.89.059a1.416,1.416,0,0,1-.033-.273.186.186,0,0,1,.153-.2,1.928,1.928,0,0,0,.615-.189.933.933,0,0,0,.232-.161.324.324,0,0,0,.094-.232V34.362a2.721,2.721,0,0,0-.255-1.426.946.946,0,0,0-.837-.367,2.507,2.507,0,0,0-.844.143,2.072,2.072,0,0,0-.709.428,2.115,2.115,0,0,0-.5.691,2.234,2.234,0,0,0-.186.939v3.109a.416.416,0,0,0,.291.385,3.02,3.02,0,0,0,.648.2.186.186,0,0,1,.153.2,1.416,1.416,0,0,1-.033.273c-.3-.023-.584-.041-.862-.059s-.574-.025-.88-.025-.612,0-.913.025-.6.036-.9.059a1.418,1.418,0,0,1-.033-.273.186.186,0,0,1,.153-.2,2.951,2.951,0,0,0,.622-.181.421.421,0,0,0,.316-.4V34.362a2.721,2.721,0,0,0-.255-1.426.921.921,0,0,0-.824-.367,2.492,2.492,0,0,0-.842.143,2.142,2.142,0,0,0-.714.428,2.091,2.091,0,0,0-.51.691,2.275,2.275,0,0,0-.186.939v3.109a.416.416,0,0,0,.3.385,3.344,3.344,0,0,0,.64.2.186.186,0,0,1,.156.2,1.453,1.453,0,0,1-.036.273c-.3-.023-.587-.041-.872-.059s-.589-.025-.91-.025-.65,0-.949.025-.587.036-.872.059a1.416,1.416,0,0,1-.033-.273.186.186,0,0,1,.153-.2,3.415,3.415,0,0,0,.683-.2.426.426,0,0,0,.309-.4V33.217a1.176,1.176,0,0,0-.181-.734,1.1,1.1,0,0,0-.765-.273.224.224,0,0,1-.222-.24.951.951,0,0,1,.033-.222,6.156,6.156,0,0,0,.622-.026c.268-.026.487-.036.661-.059.255-.046.51-.094.706-.145a2.162,2.162,0,0,1,.451-.077c.161,0,.24.084.24.255a3.621,3.621,0,0,1-.051.571,6.177,6.177,0,0,0-.051.88c.033-.033.13-.143.291-.324a5.026,5.026,0,0,1,.61-.581,4.847,4.847,0,0,1,.877-.553,2.382,2.382,0,0,1,1.089-.255,1.755,1.755,0,0,1,1.319.451,2.094,2.094,0,0,1,.52,1.28Z" transform="translate(-181.197 -23.412)"/><path class="a" d="M296.7,35.287a3.787,3.787,0,0,1,3.808-3.808,4.065,4.065,0,0,1,1.53.281,3.629,3.629,0,0,1,1.2.778,3.448,3.448,0,0,1,.785,1.2,4.123,4.123,0,0,1,.28,1.545,3.733,3.733,0,0,1-.3,1.494,3.792,3.792,0,0,1-2.015,2.015,3.734,3.734,0,0,1-1.495.3,4.1,4.1,0,0,1-1.53-.281,3.614,3.614,0,0,1-1.206-.778,3.5,3.5,0,0,1-.785-1.2A4.156,4.156,0,0,1,296.7,35.287Zm1.607-.564a6.41,6.41,0,0,0,.138,1.3,4.563,4.563,0,0,0,.416,1.2,2.678,2.678,0,0,0,.722.89,1.671,1.671,0,0,0,1.074.349,1.818,1.818,0,0,0,1.512-.681,2.757,2.757,0,0,0,.538-1.76,7.4,7.4,0,0,0-.128-1.324,4.873,4.873,0,0,0-.411-1.275,2.87,2.87,0,0,0-.734-.946,1.678,1.678,0,0,0-1.112-.355,1.862,1.862,0,0,0-1.461.625A2.9,2.9,0,0,0,298.306,34.723Z" transform="translate(-221.031 -23.45)"/><path class="a" d="M334.68,37.88a.418.418,0,0,0,.306.385,3.414,3.414,0,0,0,.683.2.186.186,0,0,1,.153.2,1.418,1.418,0,0,1-.033.273c-.3-.023-.587-.041-.872-.059s-.592-.026-.921-.026-.612,0-.916.026-.6.036-.9.059a1.416,1.416,0,0,1-.033-.273.186.186,0,0,1,.153-.2,3.059,3.059,0,0,0,.648-.2.416.416,0,0,0,.291-.385V34.534a5.7,5.7,0,0,0-.051-.786,1.8,1.8,0,0,0-.2-.625,1.02,1.02,0,0,0-.39-.411,1.275,1.275,0,0,0-.638-.143,2.509,2.509,0,0,0-.831.143,2.163,2.163,0,0,0-.734.428,2.086,2.086,0,0,0-.51.691,2.234,2.234,0,0,0-.186.939V37.88a.416.416,0,0,0,.3.385,3.342,3.342,0,0,0,.653.2.186.186,0,0,1,.153.2,1.413,1.413,0,0,1-.033.273c-.3-.023-.587-.041-.872-.059s-.592-.026-.913-.026-.65,0-.946.026-.589.036-.872.059a1.409,1.409,0,0,1-.033-.273.186.186,0,0,1,.153-.2,3.464,3.464,0,0,0,.684-.2.426.426,0,0,0,.306-.4V33.218a1.176,1.176,0,0,0-.178-.734,1.113,1.113,0,0,0-.765-.273.224.224,0,0,1-.222-.24.976.976,0,0,1,.036-.222,6.18,6.18,0,0,0,.622-.026c.268-.026.487-.036.658-.059.255-.046.51-.094.709-.145a2.147,2.147,0,0,1,.449-.077c.161,0,.242.084.242.255a3.947,3.947,0,0,1-.051.571,5.826,5.826,0,0,0-.051.88,7.4,7.4,0,0,1,1.4-1.275,2.619,2.619,0,0,1,1.472-.444,1.941,1.941,0,0,1,1.558.6,2.507,2.507,0,0,1,.51,1.683Z" transform="translate(-243.692 -23.413)"/><path class="a" d="M366.8,27.612h-.594c-.2,0-.388.015-.559.026s-.319.023-.444.036l-.237.015a.528.528,0,0,0-.018-.12.846.846,0,0,1-.018-.153.186.186,0,0,1,.153-.2A3.492,3.492,0,0,0,365.8,27a.406.406,0,0,0,.273-.393V21.975a1.176,1.176,0,0,0-.181-.734,1.1,1.1,0,0,0-.765-.273.224.224,0,0,1-.222-.24.952.952,0,0,1,.033-.222,6.2,6.2,0,0,0,.625-.025c.268-.026.487-.036.658-.059.255-.046.51-.094.709-.145a2.121,2.121,0,0,1,.449-.077c.161,0,.24.084.24.255a3.624,3.624,0,0,1-.051.571,6.168,6.168,0,0,0-.051.88v4.713a.406.406,0,0,0,.255.393,3.233,3.233,0,0,0,.742.207.184.184,0,0,1,.138.2v.153a.3.3,0,0,1-.025.12l-.232-.015c-.12-.013-.255-.023-.436-.036s-.357-.02-.556-.026Zm-1-10.265a1,1,0,0,1,.281-.709.933.933,0,0,1,.709-.3.89.89,0,0,1,.689.3,1.02,1.02,0,0,1,.273.709.971.971,0,0,1-.273.717.926.926,0,0,1-.683.275.974.974,0,0,1-.709-.275A.946.946,0,0,1,365.8,17.346Z" transform="translate(-271.845 -12.171)"/><path class="a" d="M390.427,24.1a1.553,1.553,0,0,0,.033.349.511.511,0,0,0,.138.255.729.729,0,0,0,.281.163,2.39,2.39,0,0,0,.472.094q.222.036.222.222a.99.99,0,0,1-.036.237,5.365,5.365,0,0,0-.589.026c-.245.026-.451.038-.622.061q-.383.069-.666.145a1.831,1.831,0,0,1-.426.077.23.23,0,0,1-.255-.255V24.165c-.158.214-.319.423-.477.622a2.968,2.968,0,0,1-.556.53,2.649,2.649,0,0,1-.724.367,3.216,3.216,0,0,1-.992.135,2.647,2.647,0,0,1-1.109-.24,2.739,2.739,0,0,1-.939-.706,3.636,3.636,0,0,1-.658-1.153,4.536,4.536,0,0,1-.255-1.556,3.807,3.807,0,0,1,.36-1.681,4.138,4.138,0,0,1,.888-1.247,3.869,3.869,0,0,1,1.153-.765,2.969,2.969,0,0,1,1.153-.255,4.646,4.646,0,0,1,1.153.128,7.371,7.371,0,0,1,1,.332V15.438a1.14,1.14,0,0,0-.178-.727,1.114,1.114,0,0,0-.778-.255.224.224,0,0,1-.222-.237,1.021,1.021,0,0,1,.036-.24,6.155,6.155,0,0,0,.622-.026c.268-.026.487-.038.661-.061a5.129,5.129,0,0,0,.719-.145,2.013,2.013,0,0,1,.449-.087c.163,0,.242.087.242.255a5.152,5.152,0,0,1-.051.666,7.185,7.185,0,0,0-.051.923Zm-1.436-4.32a3.407,3.407,0,0,0-.946-.7,2.55,2.55,0,0,0-1.16-.255,1.645,1.645,0,0,0-1.495.819,3.951,3.951,0,0,0-.51,2.1,5.153,5.153,0,0,0,.145,1.237,3.438,3.438,0,0,0,.429,1.033,2.222,2.222,0,0,0,.7.7,1.622,1.622,0,0,0,.9.255,1.308,1.308,0,0,0,.684-.2,2.723,2.723,0,0,0,.622-.51,2.806,2.806,0,0,0,.459-.729,1.933,1.933,0,0,0,.178-.8Z" transform="translate(-285.522 -10.175)"/><path class="a" d="M423.505,37.265a.362.362,0,0,1,.255-.12c.115,0,.222.1.324.291a4.984,4.984,0,0,1-.51.6,3.345,3.345,0,0,1-.691.51,3.827,3.827,0,0,1-.913.367,4.678,4.678,0,0,1-1.178.135,3.792,3.792,0,0,1-1.3-.222,2.933,2.933,0,0,1-1.084-.683A3.391,3.391,0,0,1,417.657,37a4.186,4.186,0,0,1-.281-1.607,3.825,3.825,0,0,1,.331-1.6,4.142,4.142,0,0,1,.862-1.255,4.049,4.049,0,0,1,1.171-.814,3.019,3.019,0,0,1,1.239-.288,2.768,2.768,0,0,1,2.313.921,3.774,3.774,0,0,1,.724,2.408.092.092,0,0,1-.1.1l-4.935.222a3.882,3.882,0,0,0,.186,1.229,2.971,2.971,0,0,0,.528.972,2.4,2.4,0,0,0,.824.666,2.55,2.55,0,0,0,1.1.23,2.3,2.3,0,0,0,1.046-.255A2.755,2.755,0,0,0,423.505,37.265Zm-2.759-5.208a1.53,1.53,0,0,0-1.326.666,2.938,2.938,0,0,0-.474,1.742l3.211-.153c.171,0,.255-.074.255-.222a2.457,2.457,0,0,0-.1-.683,2.3,2.3,0,0,0-.306-.658,1.714,1.714,0,0,0-.51-.495A1.352,1.352,0,0,0,420.746,32.057Z" transform="translate(-310.931 -23.413)"/><path class="a" d="M451.859,33.548a.283.283,0,0,1-.2-.059.322.322,0,0,1-.077-.128,1.433,1.433,0,0,0-.556-1,1.867,1.867,0,0,0-1.084-.3,1.448,1.448,0,0,0-.88.281.913.913,0,0,0-.383.765.939.939,0,0,0,.37.768,3.863,3.863,0,0,0,1.275.589,8.042,8.042,0,0,1,.913.342,2.711,2.711,0,0,1,.717.454,1.858,1.858,0,0,1,.472.648,2.258,2.258,0,0,1,.171.913,2.324,2.324,0,0,1-.163.854,1.949,1.949,0,0,1-.495.717,2.491,2.491,0,0,1-.849.482,3.4,3.4,0,0,1-1.206.189,6.7,6.7,0,0,1-1.219-.128,3.973,3.973,0,0,1-1.222-.436c-.023-.3-.043-.607-.061-.931s-.026-.65-.026-.982h.163a.627.627,0,0,1,.291.061.255.255,0,0,1,.138.2A1.706,1.706,0,0,0,448.505,38a1.982,1.982,0,0,0,1.359.434,1.64,1.64,0,0,0,1.076-.314,1.074,1.074,0,0,0,.375-.865,1,1,0,0,0-.411-.862,4.1,4.1,0,0,0-1.211-.538,4.335,4.335,0,0,1-1.581-.8,1.826,1.826,0,0,1-.571-1.454,2.073,2.073,0,0,1,.65-1.53,2.257,2.257,0,0,1,.75-.462,2.782,2.782,0,0,1,.992-.168,4.5,4.5,0,0,1,1.275.179,4.136,4.136,0,0,1,.949.385c0,.089.023.2.033.332s.02.255.026.411,0,.283.018.426a2.759,2.759,0,0,1,0,.385Z" transform="translate(-333.269 -23.42)"/><line class="b" y2="27.444" transform="translate(127.254 0.909)"/><path class="a" d="M546.58,31.086a1.382,1.382,0,0,1,.082-.145.283.283,0,0,1,.156-.11,1.832,1.832,0,0,1,.291-.064,3.74,3.74,0,0,1,.51-.026H548l.51-.018c.184,0,.367-.015.556-.028l.51-.036a1.7,1.7,0,0,1,.036.291c0,.194-.061.3-.181.309a2.178,2.178,0,0,0-.875.255.479.479,0,0,0-.219.408c0,.013,0,.173.028.485s.046.824.082,1.545.082,1.686.138,2.887.117,2.7.191,4.478a.632.632,0,0,0,.235.51,2.226,2.226,0,0,0,.893.273.2.2,0,0,1,.138.1.391.391,0,0,1,.046.191,1.512,1.512,0,0,1-.038.293l-1.155-.064c-.347-.02-.666-.028-.956-.028h-.454l-.574.02c-.2,0-.4.015-.592.026l-.51.038a1.469,1.469,0,0,1-.036-.293c0-.194.059-.291.181-.291a3.934,3.934,0,0,0,1.01-.3.51.51,0,0,0,.255-.492c0-.036,0-.255-.028-.673s-.043-.916-.074-1.512-.061-1.237-.089-1.928-.061-1.344-.092-1.959-.059-1.14-.082-1.584-.036-.712-.036-.808l-3.989,9.643a1.259,1.259,0,0,1-.135.255.209.209,0,0,1-.173.084.434.434,0,0,1-.166-.02l-4.46-10.265c0,.122-.026.416-.043.885s-.043,1.02-.074,1.665-.064,1.324-.1,2.04-.072,1.38-.1,1.984-.056,1.117-.074,1.53-.028.632-.028.655q0,.566,1.239.783c.12,0,.181.11.181.291a1.682,1.682,0,0,1-.036.293c-.329-.026-.65-.046-.966-.064s-.594-.028-.837-.028c-.194,0-.454,0-.783.028s-.638.038-.928.064a1.469,1.469,0,0,1-.036-.293c0-.168.059-.255.181-.291a2.549,2.549,0,0,0,.793-.255.655.655,0,0,0,.337-.51c0-.11,0-.416.036-.918s.051-1.1.082-1.785.064-1.426.1-2.2.071-1.5.1-2.158.054-1.209.071-1.64.028-.653.028-.663a.467.467,0,0,0-.227-.428,2.83,2.83,0,0,0-.865-.255c-.122,0-.184-.115-.184-.309a1.7,1.7,0,0,1,.036-.291l.538.036c.2,0,.4.023.6.028l.574.018h.436a3.763,3.763,0,0,1,.51.026,1.972,1.972,0,0,1,.291.064.283.283,0,0,1,.156.11c.028.048.056.1.082.145l3.894,9.094Z" transform="translate(-398.789 -22.839)"/><path class="a" d="M605.364,53.778c.133,0,.207.128.219.383a2.063,2.063,0,0,1-1.2.329,1.859,1.859,0,0,1-.7-.12,1.464,1.464,0,0,1-.5-.319,1.407,1.407,0,0,1-.314-.454,1.938,1.938,0,0,1-.148-.528,2.551,2.551,0,0,1-1.084,1.12,3.334,3.334,0,0,1-1.449.3,5.254,5.254,0,0,1-.765-.064,2.375,2.375,0,0,1-.765-.255,1.653,1.653,0,0,1-.6-.564,1.751,1.751,0,0,1-.237-.967,1.971,1.971,0,0,1,.3-1.148,2.616,2.616,0,0,1,.819-.765,5.048,5.048,0,0,1,1.094-.482c.393-.12.765-.224,1.137-.309.207-.036.4-.077.574-.12a4.148,4.148,0,0,0,.464-.135.484.484,0,0,0,.319-.2,1.276,1.276,0,0,0,.064-.49,2.744,2.744,0,0,0-.329-1.413,1.237,1.237,0,0,0-1.165-.553,1.683,1.683,0,0,0-.528.071.87.87,0,0,0-.362.227,1.329,1.329,0,0,0-.255.411,5.837,5.837,0,0,0-.219.6.436.436,0,0,1-.255.291,4.657,4.657,0,0,1-.648.219,2.722,2.722,0,0,1-.273.071,1.212,1.212,0,0,1-.273.036c-.122,0-.181-.128-.181-.383a1.311,1.311,0,0,1,.309-.8,3.145,3.145,0,0,1,.791-.709,4.779,4.779,0,0,1,1.048-.51,3.341,3.341,0,0,1,1.074-.191,5.639,5.639,0,0,1,1.15.107,2.114,2.114,0,0,1,.88.4,1.843,1.843,0,0,1,.564.783,3.569,3.569,0,0,1,.191,1.275v3.142a6.446,6.446,0,0,0,.046.921,1.359,1.359,0,0,0,.138.444.746.746,0,0,0,.28.339.7.7,0,0,0,.319.082.727.727,0,0,0,.283-.038A.439.439,0,0,1,605.364,53.778Zm-2.767-3.55-.587.092c-.319.061-.625.133-.926.217a2.907,2.907,0,0,0-.8.357,1.766,1.766,0,0,0-.558.574,1.614,1.614,0,0,0-.212.854,1.449,1.449,0,0,0,.357,1.056,1.2,1.2,0,0,0,.89.365,1.619,1.619,0,0,0,.686-.156,1.721,1.721,0,0,0,.587-.436,2.4,2.4,0,0,0,.4-.666,2.233,2.233,0,0,0,.156-.837Z" transform="translate(-445.356 -34.535)"/><path class="a" d="M633,42.246h-.635c-.214,0-.413.015-.594.028l-.474.036c-.133,0-.217.02-.255.02a1.081,1.081,0,0,0-.018-.128,1.029,1.029,0,0,1-.018-.166.2.2,0,0,1,.163-.217,3.755,3.755,0,0,0,.765-.219.431.431,0,0,0,.291-.418V36.237a1.254,1.254,0,0,0-.191-.783,1.191,1.191,0,0,0-.826-.291.255.255,0,0,1-.237-.255.957.957,0,0,1,.036-.237,6.4,6.4,0,0,0,.666-.028c.286-.028.51-.038.7-.064.283-.048.533-.1.765-.153a2.182,2.182,0,0,1,.479-.082c.171,0,.255.089.255.273a3.909,3.909,0,0,1-.056.61,6.537,6.537,0,0,0-.054.936V41.19a.431.431,0,0,0,.275.418,3.514,3.514,0,0,0,.791.219.194.194,0,0,1,.145.217v.166a.3.3,0,0,1-.028.128,1.629,1.629,0,0,1-.255-.02l-.464-.036c-.184,0-.38-.02-.594-.028ZM631.934,31.3a1.058,1.058,0,0,1,.3-.765,1,1,0,0,1,.765-.319.951.951,0,0,1,.729.319,1.081,1.081,0,0,1,.291.765,1.035,1.035,0,0,1-.291.765.992.992,0,0,1-.729.291,1.038,1.038,0,0,1-.765-.291A1.02,1.02,0,0,1,631.934,31.3Z" transform="translate(-470.052 -22.51)"/><path class="a" d="M657.459,48.238a3.78,3.78,0,0,0,.329-.347,5.4,5.4,0,0,1,.666-.62,5.607,5.607,0,0,1,.951-.6,2.507,2.507,0,0,1,1.16-.273,1.775,1.775,0,0,1,1.553.645,3.06,3.06,0,0,1,.456,1.785v4.432a.446.446,0,0,0,.326.411,3.656,3.656,0,0,0,.729.209.2.2,0,0,1,.163.217,1.7,1.7,0,0,1-.036.293c-.316-.026-.625-.046-.931-.064s-.635-.028-.99-.028-.645,0-.974.028-.645.038-.949.064a1.7,1.7,0,0,1-.036-.293.2.2,0,0,1,.163-.217,1.933,1.933,0,0,0,.339-.074,2.093,2.093,0,0,0,.316-.115.857.857,0,0,0,.255-.173.331.331,0,0,0,.1-.255V49.511a2.952,2.952,0,0,0-.273-1.53,1.02,1.02,0,0,0-.893-.39,2.65,2.65,0,0,0-.9.153,2.2,2.2,0,0,0-1.293,1.194,2.351,2.351,0,0,0-.2,1v3.315a.441.441,0,0,0,.309.411,3.316,3.316,0,0,0,.694.209.2.2,0,0,1,.163.217,1.7,1.7,0,0,1-.036.293c-.316-.026-.622-.046-.921-.064s-.609-.028-.939-.028-.65,0-.972.028-.643.038-.956.064a1.508,1.508,0,0,1-.038-.293.2.2,0,0,1,.166-.217,3.391,3.391,0,0,0,.663-.191.457.457,0,0,0,.337-.428V49.511a3.141,3.141,0,0,0-.255-1.53.977.977,0,0,0-.875-.38,2.645,2.645,0,0,0-.9.153,2.334,2.334,0,0,0-.765.457,2.216,2.216,0,0,0-.536.737,2.393,2.393,0,0,0-.2,1v3.315a.446.446,0,0,0,.319.411,3.615,3.615,0,0,0,.684.209.2.2,0,0,1,.163.217,1.474,1.474,0,0,1-.036.293c-.316-.026-.625-.046-.931-.064s-.627-.028-.972-.028-.694,0-1.02.028-.625.038-.928.064a1.512,1.512,0,0,1-.038-.293.2.2,0,0,1,.166-.217,3.629,3.629,0,0,0,.727-.209.454.454,0,0,0,.329-.428V48.292a1.256,1.256,0,0,0-.191-.783,1.193,1.193,0,0,0-.829-.291.255.255,0,0,1-.237-.255,1.082,1.082,0,0,1,.036-.237,6.4,6.4,0,0,0,.666-.028c.286-.028.51-.038.7-.064.281-.048.533-.1.765-.153a2.207,2.207,0,0,1,.472-.082c.173,0,.255.089.255.273a4.2,4.2,0,0,1-.054.61,6.494,6.494,0,0,0-.056.936c.038-.036.14-.15.309-.344a5.358,5.358,0,0,1,.663-.62,5.261,5.261,0,0,1,.933-.592,2.551,2.551,0,0,1,1.163-.255,1.867,1.867,0,0,1,1.405.482A2.228,2.228,0,0,1,657.459,48.238Z" transform="translate(-483.961 -34.565)"/><path class="a" d="M706.71,50.43a4.055,4.055,0,0,1,2.458-3.752,3.945,3.945,0,0,1,1.594-.319,4.392,4.392,0,0,1,1.64.3,3.9,3.9,0,0,1,1.275.829,3.666,3.666,0,0,1,.837,1.275,4.382,4.382,0,0,1,.3,1.648A3.986,3.986,0,0,1,714.5,52a4.079,4.079,0,0,1-.865,1.275,4.179,4.179,0,0,1-1.275.865,3.988,3.988,0,0,1-1.594.319,4.371,4.371,0,0,1-1.637-.3,3.886,3.886,0,0,1-1.275-.829,3.7,3.7,0,0,1-.837-1.275,4.365,4.365,0,0,1-.3-1.625Zm1.711-.592a6.905,6.905,0,0,0,.145,1.385,4.913,4.913,0,0,0,.446,1.275,2.893,2.893,0,0,0,.765.946,1.785,1.785,0,0,0,1.145.372,1.933,1.933,0,0,0,1.612-.727,2.938,2.938,0,0,0,.574-1.874,7.73,7.73,0,0,0-.138-1.413,5.085,5.085,0,0,0-.436-1.347,3.039,3.039,0,0,0-.783-1.02,1.8,1.8,0,0,0-1.183-.4,1.989,1.989,0,0,0-1.556.663A3.205,3.205,0,0,0,708.421,49.838Z" transform="translate(-526.476 -34.535)"/><path class="a" d="M748.957,38.5a8.328,8.328,0,0,1-2.841-.423,5.174,5.174,0,0,1-1.913-1.176,4.4,4.4,0,0,1-1.081-1.729,6.454,6.454,0,0,1-.342-2.112,8.884,8.884,0,0,1,.51-2.9,8.091,8.091,0,0,1,1.507-2.64,7.665,7.665,0,0,1,2.52-1.913,8.039,8.039,0,0,1,3.57-.737,10.968,10.968,0,0,1,2.04.186,15.573,15.573,0,0,1,1.941.5,11.407,11.407,0,0,0-.061,1.178,6.924,6.924,0,0,0,.031.808c.031.258.043.51.071.727a.735.735,0,0,1-.546.184.446.446,0,0,1-.51-.406,2.581,2.581,0,0,0-1.1-1.8,3.719,3.719,0,0,0-2.007-.528,4.272,4.272,0,0,0-2.234.587,5.3,5.3,0,0,0-1.66,1.563,7.562,7.562,0,0,0-1.041,2.283,10.125,10.125,0,0,0-.365,2.757,6.646,6.646,0,0,0,.255,1.938,4.512,4.512,0,0,0,.747,1.484,3.3,3.3,0,0,0,1.186.949,3.5,3.5,0,0,0,1.545.334,3.632,3.632,0,0,0,2.063-.566,4.292,4.292,0,0,0,1.438-1.841.846.846,0,0,1,.222-.273.643.643,0,0,1,.393-.084.836.836,0,0,1,.383.092.947.947,0,0,1,.242.153,10.939,10.939,0,0,0-.538,1.285,12.88,12.88,0,0,0-.444,1.681c-.324.066-.671.128-1.043.181s-.737.1-1.1.14-.7.071-1.02.092S749.178,38.5,748.957,38.5Z" transform="translate(-553.347 -18.526)"/><path class="a" d="M796,45.243l-.089-.023a8.624,8.624,0,0,1-2.181,2.882,3.473,3.473,0,0,1-2,.88,2.92,2.92,0,0,1-.765-.1,1.625,1.625,0,0,1-.658-.355,1.887,1.887,0,0,1-.469-.673,2.807,2.807,0,0,1-.179-1.069,8.355,8.355,0,0,1,2.226-5.843,6.915,6.915,0,0,1,2.068-1.53,4.932,4.932,0,0,1,2.071-.51,12.155,12.155,0,0,1,1.446.089q.734.089,1.714.291L797.689,46.8c-.015.074-.026.138-.033.189a.836.836,0,0,0,0,.122.176.176,0,0,0,.2.2.9.9,0,0,0,.324-.077,3.475,3.475,0,0,0,.367-.179c.117-.066.23-.125.334-.179a.592.592,0,0,1,.255-.077.309.309,0,0,1,.278.189,1.075,1.075,0,0,1,.122.367c-.237.163-.51.342-.837.533s-.645.372-.977.536a8.636,8.636,0,0,1-.979.411,2.581,2.581,0,0,1-.837.168.913.913,0,0,1-.576-.158.627.627,0,0,1-.2-.533,2.319,2.319,0,0,1,.112-.622Zm.579-5.3-.39-.089a2,2,0,0,0-.388-.043,2.3,2.3,0,0,0-1.426.49,4.209,4.209,0,0,0-1.112,1.339,7.552,7.552,0,0,0-.714,2.01,11.687,11.687,0,0,0-.255,2.522,3.431,3.431,0,0,0,.1.936.433.433,0,0,0,.456.337,1.242,1.242,0,0,0,.768-.36,5.168,5.168,0,0,0,.847-.982,11.724,11.724,0,0,0,.814-1.4,15.482,15.482,0,0,0,.689-1.617,11.687,11.687,0,0,0,.467-1.653A6.314,6.314,0,0,0,796.577,39.946Z" transform="translate(-588.266 -28.978)"/><path class="a" d="M837.383,40.924a1.163,1.163,0,0,0-.666.255,4.726,4.726,0,0,0-.747.689,8.129,8.129,0,0,0-.765,1.046,12.923,12.923,0,0,0-.737,1.3,6.029,6.029,0,0,0-.331.834c-.1.319-.2.648-.278.99a10.015,10.015,0,0,0-.191,1,6.66,6.66,0,0,0-.066.867,2.943,2.943,0,0,0,.066.645c-.355.043-.714.1-1.079.156a10.024,10.024,0,0,0-1.168.255c-.255-.1-.377-.237-.377-.4a1.534,1.534,0,0,1,.02-.235,1.373,1.373,0,0,1,.046-.189l1.423-7.187a.431.431,0,0,0,.023-.235.11.11,0,0,0-.1-.074.567.567,0,0,0-.2.056l-.3.122c-.112.043-.222.084-.334.122a.939.939,0,0,1-.278.054.324.324,0,0,1-.3-.2,1.8,1.8,0,0,1-.143-.38,10.489,10.489,0,0,1,.987-.541c.388-.186.765-.357,1.148-.51s.722-.286,1.033-.39a2.551,2.551,0,0,1,.691-.156.676.676,0,0,1,.334.089.331.331,0,0,1,.156.311V39.4a.577.577,0,0,1-.046.222l-.765,2.961.089.023a13.881,13.881,0,0,1,2.04-2.915,2.584,2.584,0,0,1,1.755-.882,1.784,1.784,0,0,1,.556.089.963.963,0,0,1,.377.2,9.467,9.467,0,0,0-.576,2.425h-.446a1.552,1.552,0,0,0-.334-.423A.747.747,0,0,0,837.383,40.924Z" transform="translate(-618.993 -28.911)"/><path class="a" d="M870.25,40.9a2.411,2.411,0,0,1-.4,1.392,3.094,3.094,0,0,1-1.13.982,6.843,6.843,0,0,1-1.757.612,14.294,14.294,0,0,1-2.27.288c-.015.148-.028.291-.036.423s0,.275,0,.423a5.636,5.636,0,0,0,.079.956,2.456,2.456,0,0,0,.278.824,1.626,1.626,0,0,0,.546.579,1.594,1.594,0,0,0,.877.222,3.514,3.514,0,0,0,.969-.168,4.568,4.568,0,0,0,1.211-.589c.135-.089.255-.163.324-.222a.464.464,0,0,1,.278-.089.3.3,0,0,1,.3.235,1.277,1.277,0,0,1,.076.321,8.986,8.986,0,0,1-.722.589,6.268,6.268,0,0,1-.979.592,7.778,7.778,0,0,1-1.181.454,4.486,4.486,0,0,1-1.3.191,3.644,3.644,0,0,1-1.67-.334,2.634,2.634,0,0,1-1-.87,3.3,3.3,0,0,1-.49-1.178,6.235,6.235,0,0,1-.135-1.275,7.332,7.332,0,0,1,.39-2.358,6.8,6.8,0,0,1,1.11-2.064,5.778,5.778,0,0,1,1.719-1.466,4.5,4.5,0,0,1,2.224-.556,3.6,3.6,0,0,1,1.923.477A1.75,1.75,0,0,1,870.25,40.9Zm-3.111-1.2a1.275,1.275,0,0,0-.8.3,3.028,3.028,0,0,0-.689.814,5.683,5.683,0,0,0-.536,1.168,8.084,8.084,0,0,0-.334,1.39,5.39,5.39,0,0,0,1.492-.334,2.974,2.974,0,0,0,.956-.589,2.038,2.038,0,0,0,.51-.765,2.645,2.645,0,0,0,.156-.9,1.291,1.291,0,0,0-.212-.791.658.658,0,0,0-.543-.291Z" transform="translate(-642.251 -28.912)"/></g></g></svg>