<svg xmlns="http://www.w3.org/2000/svg" width="270.462" height="33.634" viewBox="0 0 270.462 33.634"><defs><style>.a{fill:#fff;}.b{fill:none;stroke:#fff;stroke-miterlimit:10;stroke-width:1.5px;}</style></defs><g transform="translate(-0.001 0.005)"><g transform="translate(0.001 -0.005)"><rect class="a" width="17.843" height="1.443" transform="matrix(0.668, -0.744, 0.744, 0.668, 11.966, 24.026)"/><rect class="a" width="17.843" height="1.443" transform="translate(9.971 22.231) rotate(-48.06)"/><rect class="a" width="17.843" height="1.443" transform="translate(7.979 20.437) rotate(-48.04)"/><rect class="a" width="17.843" height="1.443" transform="matrix(0.668, -0.744, 0.744, 0.668, 5.985, 18.646)"/><rect class="a" width="17.843" height="1.443" transform="translate(3.991 16.852) rotate(-48.04)"/><rect class="a" width="17.843" height="1.443" transform="translate(1.993 15.062) rotate(-48.04)"/><rect class="a" width="17.843" height="1.443" transform="translate(0 13.268) rotate(-48.04)"/><rect class="a" width="17.843" height="0.717" transform="matrix(0.668, -0.744, 0.744, 0.668, 24.348, 24.382)"/><rect class="a" width="17.843" height="0.717" transform="matrix(0.668, -0.744, 0.744, 0.668, 22.352, 22.587)"/><rect class="a" width="17.843" height="0.717" transform="matrix(0.668, -0.744, 0.744, 0.668, 20.361, 20.797)"/><rect class="a" width="17.843" height="0.717" transform="translate(18.363 19) rotate(-48.06)"/><rect class="a" width="17.843" height="0.717" transform="matrix(0.668, -0.744, 0.744, 0.668, 16.375, 17.211)"/><rect class="a" width="17.843" height="0.717" transform="matrix(0.668, -0.744, 0.744, 0.668, 14.385, 15.422)"/><rect class="a" width="17.843" height="0.717" transform="matrix(0.668, -0.744, 0.744, 0.668, 12.389, 13.628)"/><path class="a" d="M267.817,76.75l2.242,5.924,2.326-5.924h.947v6.759h-.644V77.67h-.018l-2.308,5.839h-.605l-2.224-5.839h-.018v5.839h-.644V76.75Z" transform="translate(-186.134 -53.529)"/><path class="a" d="M292.117,85.881a1.8,1.8,0,0,0,.287.605,1.609,1.609,0,0,0,.5.454,1.394,1.394,0,0,0,.729.182,1.455,1.455,0,0,0,1.023-.342,1.788,1.788,0,0,0,.508-.908h.605a2.4,2.4,0,0,1-.7,1.286,2.081,2.081,0,0,1-1.434.454,2.269,2.269,0,0,1-1-.2,1.833,1.833,0,0,1-.693-.545,2.456,2.456,0,0,1-.393-.826,3.75,3.75,0,0,1-.127-.986,3.557,3.557,0,0,1,.127-.947,2.589,2.589,0,0,1,.393-.829,1.966,1.966,0,0,1,.687-.587,2.117,2.117,0,0,1,1-.221,1.994,1.994,0,0,1,1,.236,1.966,1.966,0,0,1,.678.605,2.625,2.625,0,0,1,.375.88,3.872,3.872,0,0,1,.094,1.007h-3.757A2.609,2.609,0,0,0,292.117,85.881Zm2.953-1.815a1.766,1.766,0,0,0-.3-.554,1.512,1.512,0,0,0-.484-.387,1.383,1.383,0,0,0-.641-.145,1.422,1.422,0,0,0-.653.145,1.513,1.513,0,0,0-.478.381,1.974,1.974,0,0,0-.3.56,2.7,2.7,0,0,0-.157.647h3.161a2.151,2.151,0,0,0-.142-.653Z" transform="translate(-203.264 -57.517)"/><path class="a" d="M311.714,83.509v-.935H311.7a1.46,1.46,0,0,1-.278.436,1.815,1.815,0,0,1-.424.336,2.118,2.118,0,0,1-.505.212,1.924,1.924,0,0,1-.535.076,2.145,2.145,0,0,1-.968-.2,1.933,1.933,0,0,1-.687-.554,2.421,2.421,0,0,1-.408-.826,3.816,3.816,0,0,1,0-1.976,2.42,2.42,0,0,1,.408-.829,1.981,1.981,0,0,1,.687-.563,2.29,2.29,0,0,1,1.513-.142,1.767,1.767,0,0,1,.487.2,1.709,1.709,0,0,1,.4.336,1.409,1.409,0,0,1,.269.463h.018V76.75h.605v6.759Zm-3.276-1.691a2.076,2.076,0,0,0,.284.669,1.627,1.627,0,0,0,.5.478,1.4,1.4,0,0,0,.729.185,1.528,1.528,0,0,0,1.331-.663,1.966,1.966,0,0,0,.3-.669,3.265,3.265,0,0,0,0-1.513,1.952,1.952,0,0,0-.3-.666,1.549,1.549,0,0,0-.529-.478,1.594,1.594,0,0,0-.8-.185,1.368,1.368,0,0,0-.729.185,1.559,1.559,0,0,0-.478.487,2.061,2.061,0,0,0-.284.666,3.264,3.264,0,0,0,0,1.513Z" transform="translate(-214.654 -53.529)"/><path class="a" d="M326.975,76.75v.956h-.605V76.75Zm0,1.876v4.883h-.605V78.641Z" transform="translate(-227.634 -53.529)"/><path class="a" d="M334.544,83.285a1.3,1.3,0,0,0-.926-.3,1.492,1.492,0,0,0-.747.178,1.676,1.676,0,0,0-.535.472,2.173,2.173,0,0,0-.321.669,2.723,2.723,0,0,0,0,1.513,2.14,2.14,0,0,0,.321.669,1.607,1.607,0,0,0,.535.472,1.5,1.5,0,0,0,.747.182,1.322,1.322,0,0,0,.52-.106,1.4,1.4,0,0,0,.436-.3,1.6,1.6,0,0,0,.3-.439,1.632,1.632,0,0,0,.151-.56h.605a2.242,2.242,0,0,1-.654,1.386,1.906,1.906,0,0,1-1.361.5,2.284,2.284,0,0,1-.989-.2,2.091,2.091,0,0,1-.723-.545,2.371,2.371,0,0,1-.445-.817,3.37,3.37,0,0,1,0-2,2.386,2.386,0,0,1,.445-.817,2.136,2.136,0,0,1,.723-.557,2.242,2.242,0,0,1,.989-.209,2.133,2.133,0,0,1,1.328.414,1.782,1.782,0,0,1,.65,1.259h-.605A1.646,1.646,0,0,0,334.544,83.285Z" transform="translate(-231.079 -57.517)"/><path class="a" d="M347.833,83.357a1.37,1.37,0,0,1,.411-.511,1.712,1.712,0,0,1,.605-.3,2.937,2.937,0,0,1,.774-.094,3.571,3.571,0,0,1,.644.061,1.57,1.57,0,0,1,.578.233,1.237,1.237,0,0,1,.421.478,1.706,1.706,0,0,1,.16.8v2.593a.3.3,0,0,0,.351.36.439.439,0,0,0,.191-.039v.523l-.185.03a1.931,1.931,0,0,1-.206,0,.868.868,0,0,1-.363-.064.469.469,0,0,1-.212-.175.623.623,0,0,1-.1-.269,2.371,2.371,0,0,1-.024-.345h-.018a4.241,4.241,0,0,1-.327.421,1.616,1.616,0,0,1-.369.3,1.769,1.769,0,0,1-.463.191,2.662,2.662,0,0,1-.62.064,2.526,2.526,0,0,1-.638-.079,1.4,1.4,0,0,1-.52-.257,1.162,1.162,0,0,1-.351-.445,1.473,1.473,0,0,1-.127-.638,1.268,1.268,0,0,1,.227-.8,1.407,1.407,0,0,1,.605-.439,3.412,3.412,0,0,1,.847-.221l.95-.118a2.668,2.668,0,0,0,.33-.048.605.605,0,0,0,.239-.1.466.466,0,0,0,.145-.2.8.8,0,0,0,.051-.321,1.079,1.079,0,0,0-.1-.5.771.771,0,0,0-.272-.3,1.1,1.1,0,0,0-.408-.154,2.593,2.593,0,0,0-.5-.042,1.488,1.488,0,0,0-.926.269,1.056,1.056,0,0,0-.381.865h-.605a1.989,1.989,0,0,1,.182-.735Zm2.98,1.458a.348.348,0,0,1-.218.151c-.106.03-.2.051-.284.067q-.378.064-.781.118a4.161,4.161,0,0,0-.732.154,1.431,1.431,0,0,0-.545.3.711.711,0,0,0-.212.554.865.865,0,0,0,.088.4,1.016,1.016,0,0,0,.242.3,1.068,1.068,0,0,0,.351.194,1.237,1.237,0,0,0,.405.067,2.054,2.054,0,0,0,.653-.106,1.592,1.592,0,0,0,.545-.3,1.428,1.428,0,0,0,.505-1.125v-.778Z" transform="translate(-242.332 -57.504)"/><path class="a" d="M365.135,76.75v6.759h-.605V76.75Z" transform="translate(-254.249 -53.529)"/><path class="a" d="M383.344,77.764a1.885,1.885,0,0,0-.475-.514,2.078,2.078,0,0,0-.605-.318,2.275,2.275,0,0,0-.7-.109,2.46,2.46,0,0,0-1.156.254,2.321,2.321,0,0,0-.79.678,2.965,2.965,0,0,0-.454.95,4.134,4.134,0,0,0,0,2.172,2.937,2.937,0,0,0,.454.956,2.321,2.321,0,0,0,.79.678,2.46,2.46,0,0,0,1.156.254,2.093,2.093,0,0,0,.853-.169,2.054,2.054,0,0,0,.65-.463,2.353,2.353,0,0,0,.445-.687,2.793,2.793,0,0,0,.218-.847h.644a3.682,3.682,0,0,1-.3,1.125,2.794,2.794,0,0,1-.587.853,2.517,2.517,0,0,1-.847.538,2.95,2.95,0,0,1-1.083.188,3.165,3.165,0,0,1-1.395-.3,2.893,2.893,0,0,1-1.017-.762,3.2,3.2,0,0,1-.605-1.116,4.555,4.555,0,0,1,0-2.668,3.28,3.28,0,0,1,.605-1.122,2.865,2.865,0,0,1,1-.774,3.413,3.413,0,0,1,2.336-.148,2.723,2.723,0,0,1,.832.424,2.421,2.421,0,0,1,.626.684,2.345,2.345,0,0,1,.318.938h-.632A2.249,2.249,0,0,0,383.344,77.764Z" transform="translate(-263.881 -53.195)"/><path class="a" d="M401.054,85.881a1.816,1.816,0,0,0,.3.605,1.63,1.63,0,0,0,.5.454,1.4,1.4,0,0,0,.729.182,1.449,1.449,0,0,0,1-.327,1.791,1.791,0,0,0,.511-.908h.605a2.378,2.378,0,0,1-.7,1.286,2.069,2.069,0,0,1-1.434.454,2.269,2.269,0,0,1-1-.2,1.845,1.845,0,0,1-.684-.56,2.4,2.4,0,0,1-.393-.826,3.746,3.746,0,0,1-.127-.986,3.555,3.555,0,0,1,.127-.947,2.527,2.527,0,0,1,.393-.829,1.985,1.985,0,0,1,.684-.587,2.118,2.118,0,0,1,1-.221,2.006,2.006,0,0,1,1,.236,1.955,1.955,0,0,1,.675.605,2.511,2.511,0,0,1,.375.88,3.873,3.873,0,0,1,.094,1.007h-3.754a2.742,2.742,0,0,0,.088.684Zm2.953-1.815a1.814,1.814,0,0,0-.3-.554,1.513,1.513,0,0,0-.484-.387,1.4,1.4,0,0,0-.644-.145,1.422,1.422,0,0,0-.653.145,1.537,1.537,0,0,0-.481.387,1.911,1.911,0,0,0-.3.56,2.692,2.692,0,0,0-.154.647h3.158a2.15,2.15,0,0,0-.136-.66Z" transform="translate(-279.246 -57.517)"/><path class="a" d="M418.008,82.67v.841h.021a1.413,1.413,0,0,1,.605-.714,1.791,1.791,0,0,1,.956-.269,2.357,2.357,0,0,1,.856.133,1.355,1.355,0,0,1,.554.372,1.419,1.419,0,0,1,.3.605,3.435,3.435,0,0,1,.085.784v3.116h-.605V84.485a2.958,2.958,0,0,0-.057-.584,1.237,1.237,0,0,0-.2-.469.974.974,0,0,0-.381-.3,1.425,1.425,0,0,0-.605-.112,1.513,1.513,0,0,0-.638.127,1.38,1.38,0,0,0-.475.351,1.649,1.649,0,0,0-.3.529,2.117,2.117,0,0,0-.118.666v2.85H417.4V82.67Z" transform="translate(-291.125 -57.558)"/><path class="a" d="M435.111,79.582v.5h-.992v3.276a1.114,1.114,0,0,0,.079.46c.054.109.188.169.4.185a4.781,4.781,0,0,0,.511-.03v.5h-.529a.877.877,0,0,1-1.059-1.086V80.063h-.853v-.481h.853V78.1h.605v1.482Z" transform="translate(-301.775 -54.471)"/><path class="a" d="M443.527,85.879a1.743,1.743,0,0,0,.287.605,1.61,1.61,0,0,0,.5.454,1.4,1.4,0,0,0,.729.182,1.446,1.446,0,0,0,1.02-.342,1.77,1.77,0,0,0,.511-.908h.605a2.36,2.36,0,0,1-.7,1.286,2.066,2.066,0,0,1-1.431.454,2.251,2.251,0,0,1-1-.2,1.834,1.834,0,0,1-.7-.545,2.456,2.456,0,0,1-.393-.826,3.748,3.748,0,0,1-.127-.986,3.553,3.553,0,0,1,.127-.947,2.59,2.59,0,0,1,.393-.829,1.967,1.967,0,0,1,.687-.587,2.1,2.1,0,0,1,1-.221,1.93,1.93,0,0,1,1.679.856,2.563,2.563,0,0,1,.372.88,3.877,3.877,0,0,1,.1,1.007h-3.757a2.611,2.611,0,0,0,.091.669Zm2.95-1.815a1.761,1.761,0,0,0-.3-.554,1.513,1.513,0,0,0-.484-.387,1.383,1.383,0,0,0-.641-.145,1.407,1.407,0,0,0-.653.145,1.512,1.512,0,0,0-.484.387,1.9,1.9,0,0,0-.3.56,2.562,2.562,0,0,0-.157.647h3.161a2.251,2.251,0,0,0-.136-.66Z" transform="translate(-308.868 -57.516)"/><path class="a" d="M460.477,82.838v1.144h.018a1.882,1.882,0,0,1,.7-.908,1.855,1.855,0,0,1,1.141-.3v.605a1.815,1.815,0,0,0-.738.109,1.619,1.619,0,0,0-.944.926,1.846,1.846,0,0,0-.133.717v2.6h-.605V82.838Z" transform="translate(-320.781 -57.726)"/><path class="a" d="M148.46,17.164c.027-.051.057-.106.091-.16a.3.3,0,0,1,.172-.121,2.118,2.118,0,0,1,.324-.073,3.969,3.969,0,0,1,.569-.03h.427l.566-.021c.2,0,.408-.015.605-.03l.578-.039a1.681,1.681,0,0,1,.039.324q0,.324-.2.345a2.454,2.454,0,0,0-.974.272.535.535,0,0,0-.242.457s0,.191.03.535.051.908.091,1.721.091,1.876.151,3.213.133,3,.212,4.983a.729.729,0,0,0,.263.569,2.541,2.541,0,0,0,1,.3.212.212,0,0,1,.151.112.43.43,0,0,1,.051.212,1.727,1.727,0,0,1-.042.324l-1.286-.07c-.384-.021-.738-.03-1.065-.03h-.505l-.638.021a4.77,4.77,0,0,0-.66.03l-.566.039a1.677,1.677,0,0,1-.039-.324c0-.215.067-.324.2-.324a4.323,4.323,0,0,0,1.1-.324.575.575,0,0,0,.3-.548c0-.039,0-.3-.03-.75s-.048-1.02-.082-1.679-.07-1.38-.1-2.148-.067-1.5-.1-2.178-.064-1.271-.091-1.764-.042-.793-.042-.908l-4.429,10.725a1.481,1.481,0,0,1-.151.272.233.233,0,0,1-.194.091.46.46,0,0,1-.182-.021L138.8,18.786c0,.136-.03.463-.051.983s-.045,1.138-.079,1.855-.073,1.47-.112,2.269-.079,1.531-.112,2.208-.061,1.24-.082,1.7-.03.7-.03.729q0,.626,1.377.871c.136,0,.2.121.2.324a1.677,1.677,0,0,1-.039.324c-.366-.027-.723-.048-1.074-.07s-.663-.03-.932-.03c-.215,0-.505,0-.871.03s-.708.042-1.032.07a1.723,1.723,0,0,1-.042-.324c0-.188.067-.3.2-.324a2.771,2.771,0,0,0,.88-.3.714.714,0,0,0,.375-.578c0-.121,0-.463.042-1.023s.057-1.21.091-2,.07-1.585.112-2.45l.109-2.4q.054-1.107.082-1.815c.021-.481.03-.726.03-.741a.52.52,0,0,0-.251-.475,3.116,3.116,0,0,0-.962-.272c-.136-.015-.2-.13-.2-.345a1.677,1.677,0,0,1,.039-.324l.605.039c.221.015.445.024.666.03l.626.027h.487a3.97,3.97,0,0,1,.569.03,2.118,2.118,0,0,1,.324.073.3.3,0,0,1,.172.121c.033.054.064.109.091.16l4.341,10.114Z" transform="translate(-94.801 -11.632)"/><path class="a" d="M202.9,39.709c.151,0,.23.142.245.427a2.308,2.308,0,0,1-1.337.363,2.094,2.094,0,0,1-.778-.13,1.633,1.633,0,0,1-.554-.357,1.558,1.558,0,0,1-.348-.505,2.206,2.206,0,0,1-.166-.587,2.828,2.828,0,0,1-1.21,1.246,3.712,3.712,0,0,1-1.609.333,5.863,5.863,0,0,1-.862-.07,2.671,2.671,0,0,1-.862-.3,1.863,1.863,0,0,1-.666-.629,1.921,1.921,0,0,1-.266-1.074,2.178,2.178,0,0,1,.357-1.265,2.9,2.9,0,0,1,.908-.853,5.66,5.66,0,0,1,1.21-.535c.439-.136.859-.251,1.265-.345.23-.039.442-.085.638-.13a4.937,4.937,0,0,0,.517-.154.539.539,0,0,0,.354-.221,1.374,1.374,0,0,0,.073-.548,3.062,3.062,0,0,0-.366-1.57,1.387,1.387,0,0,0-1.3-.605,1.969,1.969,0,0,0-.587.079.986.986,0,0,0-.405.254,1.531,1.531,0,0,0-.281.457,7.04,7.04,0,0,0-.245.669.478.478,0,0,1-.272.324,5.034,5.034,0,0,1-.72.242c-.082.027-.182.054-.3.082a1.428,1.428,0,0,1-.3.039c-.133,0-.2-.139-.2-.424a1.458,1.458,0,0,1,.345-.892,3.492,3.492,0,0,1,.892-.8,5.364,5.364,0,0,1,1.165-.557,3.739,3.739,0,0,1,1.21-.212,6.081,6.081,0,0,1,1.277.121,2.314,2.314,0,0,1,.977.451,2.051,2.051,0,0,1,.605.871,3.966,3.966,0,0,1,.215,1.419v3.485a7.267,7.267,0,0,0,.051,1.023,1.555,1.555,0,0,0,.151.5.823.823,0,0,0,.3.375.75.75,0,0,0,.354.091.841.841,0,0,0,.3-.042A.457.457,0,0,1,202.9,39.709Zm-3.077-3.951-.644.1c-.354.067-.7.148-1.029.242a3.162,3.162,0,0,0-.886.4,1.991,1.991,0,0,0-.623.638,1.815,1.815,0,0,0-.233.95,1.625,1.625,0,0,0,.4,1.177,1.337,1.337,0,0,0,.989.405,1.839,1.839,0,0,0,.765-.172,1.936,1.936,0,0,0,.65-.487,2.574,2.574,0,0,0,.439-.729,2.421,2.421,0,0,0,.175-.932Z" transform="translate(-135.646 -21.94)"/><path class="a" d="M227.943,29.711h-.708c-.236,0-.457.018-.66.03s-.378.027-.526.042l-.284.018a1.262,1.262,0,0,0-.021-.142,1.289,1.289,0,0,1-.018-.182.221.221,0,0,1,.182-.242,4.054,4.054,0,0,0,.85-.245.475.475,0,0,0,.324-.466v-5.5a1.4,1.4,0,0,0-.212-.871,1.32,1.32,0,0,0-.908-.324.266.266,0,0,1-.263-.284,1.156,1.156,0,0,1,.042-.263,7.3,7.3,0,0,0,.738-.03c.318-.03.578-.042.781-.07.3-.054.605-.112.841-.172a2.547,2.547,0,0,1,.532-.091.272.272,0,0,1,.3.3,4.693,4.693,0,0,1-.061.678,6.9,6.9,0,0,0-.061,1.044v5.591a.475.475,0,0,0,.3.466,3.835,3.835,0,0,0,.88.245.215.215,0,0,1,.16.242v.182a.3.3,0,0,1-.03.142l-.272-.018c-.142-.015-.3-.027-.517-.042s-.424-.024-.663-.03Zm-1.186-12.177a1.186,1.186,0,0,1,.336-.841,1.1,1.1,0,0,1,.838-.354,1.05,1.05,0,0,1,.811.354,1.21,1.21,0,0,1,.327.841,1.144,1.144,0,0,1-.327.85,1.089,1.089,0,0,1-.811.327,1.147,1.147,0,0,1-.838-.327A1.125,1.125,0,0,1,226.757,17.534Z" transform="translate(-157.418 -11.394)"/><path class="a" d="M251.908,33.489a3.778,3.778,0,0,0,.366-.375,5.662,5.662,0,0,1,.744-.69,6.133,6.133,0,0,1,1.056-.669,2.811,2.811,0,0,1,1.292-.3,1.985,1.985,0,0,1,1.727.717,3.421,3.421,0,0,1,.508,2V39.08a.493.493,0,0,0,.381.457,4.02,4.02,0,0,0,.808.233.221.221,0,0,1,.185.242,1.727,1.727,0,0,1-.042.324c-.351-.027-.7-.048-1.035-.07s-.7-.03-1.1-.03-.717,0-1.083.03-.717.042-1.056.07a1.68,1.68,0,0,1-.039-.324.221.221,0,0,1,.182-.242,2.288,2.288,0,0,0,.729-.224,1.108,1.108,0,0,0,.275-.191.384.384,0,0,0,.112-.275V34.908a3.228,3.228,0,0,0-.3-1.691,1.122,1.122,0,0,0-.992-.436,2.974,2.974,0,0,0-1,.169,2.456,2.456,0,0,0-.841.508,2.508,2.508,0,0,0-.59.82,2.65,2.65,0,0,0-.221,1.113V39.08a.493.493,0,0,0,.345.457,3.582,3.582,0,0,0,.768.233.221.221,0,0,1,.182.242,1.68,1.68,0,0,1-.039.324c-.351-.027-.693-.048-1.023-.07s-.681-.03-1.044-.03-.726,0-1.083.03-.714.042-1.065.07a1.682,1.682,0,0,1-.039-.324.221.221,0,0,1,.182-.242,3.5,3.5,0,0,0,.738-.215.5.5,0,0,0,.375-.475V34.908a3.228,3.228,0,0,0-.3-1.691,1.092,1.092,0,0,0-.977-.436,2.955,2.955,0,0,0-1,.169,2.541,2.541,0,0,0-.847.508,2.481,2.481,0,0,0-.605.82,2.7,2.7,0,0,0-.221,1.113V39.08a.493.493,0,0,0,.354.457,3.966,3.966,0,0,0,.759.233.221.221,0,0,1,.185.242,1.722,1.722,0,0,1-.042.324c-.351-.027-.7-.048-1.035-.07s-.7-.03-1.08-.03-.771,0-1.125.03-.7.042-1.035.07a1.682,1.682,0,0,1-.039-.324.221.221,0,0,1,.182-.242,4.05,4.05,0,0,0,.811-.233.505.505,0,0,0,.366-.478V33.55a1.4,1.4,0,0,0-.215-.871,1.307,1.307,0,0,0-.908-.324.266.266,0,0,1-.263-.284,1.129,1.129,0,0,1,.039-.263,7.3,7.3,0,0,0,.738-.03c.318-.03.578-.042.784-.07.3-.054.605-.112.838-.172a2.565,2.565,0,0,1,.535-.091c.191,0,.284.1.284.3a4.3,4.3,0,0,1-.061.678,7.321,7.321,0,0,0-.061,1.044c.039-.039.154-.169.345-.384a5.96,5.96,0,0,1,.723-.69,5.747,5.747,0,0,1,1.041-.656,2.825,2.825,0,0,1,1.292-.3,2.081,2.081,0,0,1,1.564.535,2.484,2.484,0,0,1,.617,1.519Z" transform="translate(-169.645 -21.919)"/><path class="a" d="M296.7,36a4.492,4.492,0,0,1,4.517-4.517,4.823,4.823,0,0,1,1.815.333,4.3,4.3,0,0,1,1.428.923,4.09,4.09,0,0,1,.932,1.428A4.893,4.893,0,0,1,305.723,36a4.428,4.428,0,0,1-.354,1.773,4.5,4.5,0,0,1-2.39,2.39,4.429,4.429,0,0,1-1.773.354,4.865,4.865,0,0,1-1.815-.333,4.287,4.287,0,0,1-1.431-.923,4.151,4.151,0,0,1-.932-1.419A4.931,4.931,0,0,1,296.7,36Zm1.906-.669a7.6,7.6,0,0,0,.163,1.54,5.412,5.412,0,0,0,.493,1.425,3.176,3.176,0,0,0,.856,1.056,1.981,1.981,0,0,0,1.274.414,2.157,2.157,0,0,0,1.794-.808,3.27,3.27,0,0,0,.638-2.087,8.775,8.775,0,0,0-.151-1.57,5.779,5.779,0,0,0-.487-1.513,3.4,3.4,0,0,0-.871-1.122,1.991,1.991,0,0,0-1.319-.421,2.208,2.208,0,0,0-1.733.741A3.443,3.443,0,0,0,298.6,35.327Z" transform="translate(-206.939 -21.954)"/><path class="a" d="M336.089,39.081a.5.5,0,0,0,.363.457,4.051,4.051,0,0,0,.811.233.221.221,0,0,1,.182.242,1.677,1.677,0,0,1-.039.324c-.351-.027-.7-.048-1.035-.07s-.7-.03-1.092-.03-.726,0-1.086.03-.711.042-1.062.07a1.68,1.68,0,0,1-.039-.324.221.221,0,0,1,.181-.242,3.63,3.63,0,0,0,.768-.233.493.493,0,0,0,.345-.457V35.112a6.758,6.758,0,0,0-.061-.932,2.135,2.135,0,0,0-.233-.741,1.21,1.21,0,0,0-.463-.487,1.513,1.513,0,0,0-.756-.169,2.977,2.977,0,0,0-.986.169,2.565,2.565,0,0,0-.871.508,2.474,2.474,0,0,0-.605.82,2.649,2.649,0,0,0-.221,1.113v3.688a.493.493,0,0,0,.354.457,3.966,3.966,0,0,0,.774.233.221.221,0,0,1,.182.242,1.677,1.677,0,0,1-.039.324c-.351-.027-.7-.048-1.035-.07s-.7-.03-1.083-.03-.771,0-1.122.03-.7.042-1.035.07a1.682,1.682,0,0,1-.039-.324.221.221,0,0,1,.181-.242,4.108,4.108,0,0,0,.811-.233.505.505,0,0,0,.363-.478V33.551a1.394,1.394,0,0,0-.212-.871,1.32,1.32,0,0,0-.908-.324.266.266,0,0,1-.263-.284,1.16,1.16,0,0,1,.042-.263,7.333,7.333,0,0,0,.738-.03c.318-.03.578-.042.78-.07.3-.054.605-.112.841-.172a2.548,2.548,0,0,1,.532-.091c.191,0,.287.1.287.3a4.691,4.691,0,0,1-.061.678,6.907,6.907,0,0,0-.06,1.044,8.775,8.775,0,0,1,1.664-1.513,3.107,3.107,0,0,1,1.746-.526,2.3,2.3,0,0,1,1.848.717,2.974,2.974,0,0,1,.605,2Z" transform="translate(-228.155 -21.92)"/><path class="a" d="M367.153,29.711h-.7c-.239,0-.46.018-.663.03s-.378.027-.526.042l-.281.018a.629.629,0,0,0-.021-.142,1,1,0,0,1-.021-.182.221.221,0,0,1,.181-.242,4.141,4.141,0,0,0,.853-.245.481.481,0,0,0,.324-.466v-5.5a1.4,1.4,0,0,0-.215-.871,1.307,1.307,0,0,0-.908-.324.266.266,0,0,1-.263-.284,1.127,1.127,0,0,1,.039-.263,7.356,7.356,0,0,0,.741-.03c.318-.03.578-.042.781-.07.3-.054.605-.112.841-.172a2.518,2.518,0,0,1,.532-.091c.191,0,.284.1.284.3a4.3,4.3,0,0,1-.06.678,7.321,7.321,0,0,0-.061,1.044v5.591a.481.481,0,0,0,.3.466,3.835,3.835,0,0,0,.88.245.218.218,0,0,1,.163.242v.182a.36.36,0,0,1-.03.142l-.275-.018c-.142-.015-.3-.027-.517-.042s-.424-.024-.659-.03ZM365.97,17.534a1.183,1.183,0,0,1,.333-.841,1.107,1.107,0,0,1,.841-.354,1.056,1.056,0,0,1,.817.354,1.21,1.21,0,0,1,.324.841,1.153,1.153,0,0,1-.324.85,1.1,1.1,0,0,1-.811.327,1.155,1.155,0,0,1-.841-.327,1.122,1.122,0,0,1-.339-.85Z" transform="translate(-254.513 -11.394)"/><path class="a" d="M391.76,26.04a1.836,1.836,0,0,0,.039.414.605.605,0,0,0,.163.3.865.865,0,0,0,.333.194,2.835,2.835,0,0,0,.56.112q.263.042.263.263a1.173,1.173,0,0,1-.042.281,6.363,6.363,0,0,0-.7.03c-.29.03-.535.045-.738.073q-.454.082-.79.172a2.171,2.171,0,0,1-.505.091.273.273,0,0,1-.3-.3V26.121c-.188.254-.378.5-.566.738a3.523,3.523,0,0,1-.66.629,3.143,3.143,0,0,1-.859.436,3.815,3.815,0,0,1-1.177.16,3.14,3.14,0,0,1-1.316-.284,3.249,3.249,0,0,1-1.113-.838,4.314,4.314,0,0,1-.781-1.367,5.382,5.382,0,0,1-.3-1.845,4.516,4.516,0,0,1,.427-1.994,4.907,4.907,0,0,1,1.053-1.479,4.59,4.59,0,0,1,1.367-.908,3.521,3.521,0,0,1,1.367-.3,5.512,5.512,0,0,1,1.367.151,8.74,8.74,0,0,1,1.183.393V15.769a1.353,1.353,0,0,0-.212-.862,1.321,1.321,0,0,0-.923-.3.266.266,0,0,1-.263-.281,1.21,1.21,0,0,1,.042-.284,7.3,7.3,0,0,0,.738-.03c.318-.03.578-.045.784-.073a6.084,6.084,0,0,0,.853-.172,2.387,2.387,0,0,1,.532-.1c.194,0,.287.1.287.3a6.11,6.11,0,0,1-.061.79,8.517,8.517,0,0,0-.061,1.1Zm-1.7-5.125a4.04,4.04,0,0,0-1.122-.832,3.025,3.025,0,0,0-1.376-.3,1.951,1.951,0,0,0-1.773.971,4.687,4.687,0,0,0-.605,2.493,6.109,6.109,0,0,0,.172,1.467,4.078,4.078,0,0,0,.508,1.225,2.635,2.635,0,0,0,.826.835,1.924,1.924,0,0,0,1.062.3,1.552,1.552,0,0,0,.811-.242,3.231,3.231,0,0,0,.738-.605,3.328,3.328,0,0,0,.545-.865,2.293,2.293,0,0,0,.212-.944Z" transform="translate(-267.318 -9.526)"/><path class="a" d="M424.647,38.352a.43.43,0,0,1,.3-.142c.136,0,.263.115.384.345a5.91,5.91,0,0,1-.605.708,3.967,3.967,0,0,1-.82.605,4.538,4.538,0,0,1-1.083.436,5.548,5.548,0,0,1-1.4.16,4.5,4.5,0,0,1-1.54-.263,3.48,3.48,0,0,1-1.286-.811,4.025,4.025,0,0,1-.892-1.355,4.967,4.967,0,0,1-.333-1.906,4.539,4.539,0,0,1,.393-1.9,4.913,4.913,0,0,1,1.023-1.488,4.8,4.8,0,0,1,1.389-.965,3.582,3.582,0,0,1,1.47-.342,3.284,3.284,0,0,1,2.744,1.092,4.478,4.478,0,0,1,.859,2.856.109.109,0,0,1-.121.124l-5.854.263a4.6,4.6,0,0,0,.221,1.458,3.525,3.525,0,0,0,.626,1.153,2.847,2.847,0,0,0,.977.79,3.025,3.025,0,0,0,1.3.272,2.723,2.723,0,0,0,1.24-.3A3.267,3.267,0,0,0,424.647,38.352Zm-3.273-6.178a1.815,1.815,0,0,0-1.573.79,3.485,3.485,0,0,0-.563,2.066l3.809-.182c.2,0,.3-.088.3-.263a2.915,2.915,0,0,0-.121-.811,2.721,2.721,0,0,0-.363-.781,2.032,2.032,0,0,0-.605-.587A1.6,1.6,0,0,0,421.373,32.174Z" transform="translate(-291.107 -21.92)"/><path class="a" d="M452.7,33.941a.336.336,0,0,1-.233-.07.38.38,0,0,1-.091-.151,1.7,1.7,0,0,0-.66-1.186,2.214,2.214,0,0,0-1.286-.354,1.718,1.718,0,0,0-1.044.333,1.083,1.083,0,0,0-.454.908,1.113,1.113,0,0,0,.439.911,4.583,4.583,0,0,0,1.513.7,9.543,9.543,0,0,1,1.083.405,3.216,3.216,0,0,1,.85.539,2.2,2.2,0,0,1,.56.768,2.681,2.681,0,0,1,.2,1.083,2.756,2.756,0,0,1-.194,1.013,2.311,2.311,0,0,1-.587.85,2.956,2.956,0,0,1-1.007.572,4.039,4.039,0,0,1-1.431.224,7.945,7.945,0,0,1-1.446-.151,4.714,4.714,0,0,1-1.449-.517c-.027-.351-.051-.72-.073-1.1s-.03-.771-.03-1.165h.194a.744.744,0,0,1,.345.073.3.3,0,0,1,.163.233,2.024,2.024,0,0,0,.657,1.367,2.351,2.351,0,0,0,1.612.514,1.945,1.945,0,0,0,1.277-.372,1.274,1.274,0,0,0,.445-1.026,1.189,1.189,0,0,0-.487-1.023,4.859,4.859,0,0,0-1.437-.638,5.143,5.143,0,0,1-1.876-.95A2.166,2.166,0,0,1,447.575,34a2.46,2.46,0,0,1,.771-1.815,2.677,2.677,0,0,1,.889-.548,3.3,3.3,0,0,1,1.177-.2,5.342,5.342,0,0,1,1.513.212,4.907,4.907,0,0,1,1.125.457c0,.106.027.239.039.393s.024.3.03.487,0,.336.021.505a3.279,3.279,0,0,1,0,.457Z" transform="translate(-312.021 -21.926)"/><line class="b" y2="32.555" transform="translate(150.953 1.078)"/><path class="a" d="M548.679,31.165a1.627,1.627,0,0,1,.1-.172.336.336,0,0,1,.185-.13,2.172,2.172,0,0,1,.345-.076,4.434,4.434,0,0,1,.605-.03h.454l.605-.021c.218,0,.436-.018.659-.033l.605-.042a2.017,2.017,0,0,1,.042.345c0,.23-.073.354-.215.366a2.584,2.584,0,0,0-1.038.3.569.569,0,0,0-.26.484c0,.015,0,.206.033.575s.055.977.1,1.833.1,2,.163,3.425.139,3.2.227,5.312a.75.75,0,0,0,.278.605,2.641,2.641,0,0,0,1.059.324.236.236,0,0,1,.163.118.468.468,0,0,1,.054.227,1.792,1.792,0,0,1-.045.348l-1.37-.076c-.411-.024-.79-.033-1.134-.033h-.539l-.681.024c-.239,0-.472.018-.7.03l-.605.045a1.757,1.757,0,0,1-.042-.348c0-.23.07-.345.215-.345a4.666,4.666,0,0,0,1.2-.357.605.605,0,0,0,.3-.584c0-.042,0-.3-.033-.8s-.051-1.086-.088-1.794-.073-1.467-.106-2.287-.073-1.594-.109-2.323-.07-1.352-.1-1.879-.042-.844-.042-.959l-4.732,11.439a1.489,1.489,0,0,1-.16.3.248.248,0,0,1-.206.1.514.514,0,0,1-.2-.024l-5.291-12.177c0,.145-.03.493-.051,1.05s-.051,1.21-.088,1.976-.076,1.57-.118,2.42-.085,1.637-.118,2.354-.067,1.325-.088,1.815-.033.75-.033.778q0,.672,1.47.929c.142,0,.215.13.215.345a2,2,0,0,1-.042.348c-.39-.03-.771-.054-1.147-.076s-.7-.033-.992-.033c-.23,0-.539,0-.929.033s-.756.045-1.1.076a1.748,1.748,0,0,1-.042-.348c0-.2.07-.3.215-.345a3.025,3.025,0,0,0,.941-.3.777.777,0,0,0,.4-.605c0-.13,0-.493.042-1.089s.06-1.307.1-2.118.076-1.691.118-2.611.085-1.776.121-2.559.064-1.434.085-1.945.033-.774.033-.787a.554.554,0,0,0-.269-.508,3.358,3.358,0,0,0-1.026-.3c-.145,0-.218-.136-.218-.366a2.017,2.017,0,0,1,.042-.345l.638.042c.239,0,.475.027.714.033l.681.021h.517a4.465,4.465,0,0,1,.6.03,2.339,2.339,0,0,1,.345.076.336.336,0,0,1,.185.13c.033.057.067.115.1.172l4.62,10.788Z" transform="translate(-373.363 -21.383)"/><path class="a" d="M606.769,55.16c.157,0,.245.151.26.454A2.448,2.448,0,0,1,605.6,56a2.205,2.205,0,0,1-.826-.142,1.737,1.737,0,0,1-.59-.378,1.671,1.671,0,0,1-.372-.539,2.3,2.3,0,0,1-.175-.626,3.025,3.025,0,0,1-1.286,1.328,3.954,3.954,0,0,1-1.718.357,6.233,6.233,0,0,1-.908-.076,2.816,2.816,0,0,1-.908-.3,1.959,1.959,0,0,1-.714-.669,2.075,2.075,0,0,1-.281-1.147,2.337,2.337,0,0,1,.354-1.361,3.1,3.1,0,0,1,.971-.908,5.991,5.991,0,0,1,1.3-.572c.466-.142.908-.266,1.349-.366.245-.042.472-.091.681-.142a4.927,4.927,0,0,0,.551-.16.575.575,0,0,0,.378-.239,1.512,1.512,0,0,0,.076-.581,3.255,3.255,0,0,0-.39-1.676,1.468,1.468,0,0,0-1.383-.656,2,2,0,0,0-.626.085,1.032,1.032,0,0,0-.43.269,1.576,1.576,0,0,0-.3.487,6.883,6.883,0,0,0-.26.714.518.518,0,0,1-.3.345,5.531,5.531,0,0,1-.768.26,3.223,3.223,0,0,1-.324.085,1.438,1.438,0,0,1-.324.042c-.145,0-.215-.151-.215-.454a1.556,1.556,0,0,1,.366-.95,3.733,3.733,0,0,1,.938-.841,5.667,5.667,0,0,1,1.243-.605,3.963,3.963,0,0,1,1.274-.227,6.689,6.689,0,0,1,1.364.127,2.508,2.508,0,0,1,1.044.475,2.187,2.187,0,0,1,.669.929,4.236,4.236,0,0,1,.227,1.513V53.13a7.656,7.656,0,0,0,.054,1.092,1.614,1.614,0,0,0,.163.526.887.887,0,0,0,.333.4.826.826,0,0,0,.378.1.863.863,0,0,0,.336-.045.52.52,0,0,1,.224-.042Zm-3.282-4.211-.7.109c-.378.073-.741.157-1.1.257a3.45,3.45,0,0,0-.944.424,2.094,2.094,0,0,0-.663.681,1.916,1.916,0,0,0-.251,1.013,1.719,1.719,0,0,0,.424,1.252,1.425,1.425,0,0,0,1.056.433,1.921,1.921,0,0,0,.814-.185,2.041,2.041,0,0,0,.7-.517,2.847,2.847,0,0,0,.478-.79,2.643,2.643,0,0,0,.185-.992Z" transform="translate(-416.962 -32.333)"/><path class="a" d="M633.378,44.486h-.753c-.254,0-.49.018-.7.033l-.563.042c-.157,0-.257.024-.3.024a1.276,1.276,0,0,0-.021-.151,1.216,1.216,0,0,1-.021-.2.233.233,0,0,1,.194-.257,4.453,4.453,0,0,0,.908-.26.511.511,0,0,0,.345-.5V37.358a1.488,1.488,0,0,0-.227-.929,1.413,1.413,0,0,0-.98-.345.3.3,0,0,1-.281-.3,1.128,1.128,0,0,1,.042-.281,7.589,7.589,0,0,0,.79-.033c.339-.033.605-.045.832-.076.336-.057.632-.118.907-.182a2.591,2.591,0,0,1,.569-.1c.2,0,.3.106.3.324a4.639,4.639,0,0,1-.067.723,7.752,7.752,0,0,0-.064,1.11v5.963a.511.511,0,0,0,.327.5,4.17,4.17,0,0,0,.938.26.23.23,0,0,1,.173.257v.2a.348.348,0,0,1-.033.151,1.929,1.929,0,0,1-.3-.024l-.551-.042c-.218,0-.451-.024-.7-.033ZM632.114,31.5a1.255,1.255,0,0,1,.357-.908,1.18,1.18,0,0,1,.908-.378,1.128,1.128,0,0,1,.865.378,1.283,1.283,0,0,1,.345.908,1.228,1.228,0,0,1-.345.908,1.177,1.177,0,0,1-.865.345,1.231,1.231,0,0,1-.908-.345A1.21,1.21,0,0,1,632.114,31.5Z" transform="translate(-440.083 -21.074)"/><path class="a" d="M658.915,48.581a4.488,4.488,0,0,0,.39-.411,6.417,6.417,0,0,1,.79-.735,6.655,6.655,0,0,1,1.128-.711A2.974,2.974,0,0,1,662.6,46.4a2.1,2.1,0,0,1,1.842.765,3.63,3.63,0,0,1,.542,2.118v5.258a.529.529,0,0,0,.387.487,4.335,4.335,0,0,0,.865.248.233.233,0,0,1,.194.257,2.015,2.015,0,0,1-.042.348c-.375-.03-.741-.054-1.1-.076s-.753-.033-1.174-.033-.765,0-1.156.033-.766.045-1.125.076a2,2,0,0,1-.042-.348.233.233,0,0,1,.194-.257,2.291,2.291,0,0,0,.4-.088,2.485,2.485,0,0,0,.375-.136,1.016,1.016,0,0,0,.3-.206.394.394,0,0,0,.118-.3V50.091a3.5,3.5,0,0,0-.324-1.815,1.21,1.21,0,0,0-1.059-.463,3.143,3.143,0,0,0-1.068.182,2.61,2.61,0,0,0-1.534,1.416,2.79,2.79,0,0,0-.239,1.189v3.933a.523.523,0,0,0,.366.487,3.932,3.932,0,0,0,.823.248.233.233,0,0,1,.194.257,2,2,0,0,1-.042.348c-.375-.03-.738-.054-1.092-.076s-.723-.033-1.113-.033-.771,0-1.153.033-.762.045-1.135.076a1.8,1.8,0,0,1-.045-.348.233.233,0,0,1,.2-.257,4.026,4.026,0,0,0,.787-.227.541.541,0,0,0,.4-.508V50.091a3.724,3.724,0,0,0-.3-1.815,1.159,1.159,0,0,0-1.038-.451,3.136,3.136,0,0,0-1.065.182,2.768,2.768,0,0,0-.908.542,2.629,2.629,0,0,0-.635.874,2.837,2.837,0,0,0-.236,1.189v3.933a.53.53,0,0,0,.378.487,4.286,4.286,0,0,0,.811.248.233.233,0,0,1,.194.257,1.752,1.752,0,0,1-.042.348c-.375-.03-.741-.054-1.1-.076s-.744-.033-1.153-.033-.823,0-1.21.033-.741.045-1.1.076a1.787,1.787,0,0,1-.045-.348.233.233,0,0,1,.2-.257,4.3,4.3,0,0,0,.862-.248.538.538,0,0,0,.39-.508V48.644a1.488,1.488,0,0,0-.227-.929,1.415,1.415,0,0,0-.983-.345.3.3,0,0,1-.281-.3,1.294,1.294,0,0,1,.042-.281,7.592,7.592,0,0,0,.79-.033c.339-.033.6-.045.835-.076.333-.057.632-.118.908-.182a2.617,2.617,0,0,1,.56-.1c.206,0,.3.106.3.324a5,5,0,0,1-.064.723,7.683,7.683,0,0,0-.067,1.11c.045-.042.166-.178.366-.408a6.351,6.351,0,0,1,.787-.735,6.24,6.24,0,0,1,1.107-.7,3.025,3.025,0,0,1,1.38-.3,2.215,2.215,0,0,1,1.667.572A2.644,2.644,0,0,1,658.915,48.581Z" transform="translate(-453.105 -32.361)"/><path class="a" d="M706.71,51.188a4.811,4.811,0,0,1,2.916-4.45,4.681,4.681,0,0,1,1.891-.378,5.21,5.21,0,0,1,1.945.354,4.629,4.629,0,0,1,1.513.983,4.35,4.35,0,0,1,.992,1.513,5.2,5.2,0,0,1,.357,1.954,4.729,4.729,0,0,1-.378,1.888,4.84,4.84,0,0,1-1.026,1.513,4.958,4.958,0,0,1-1.513,1.026,4.731,4.731,0,0,1-1.891.378,5.185,5.185,0,0,1-1.942-.357,4.611,4.611,0,0,1-1.513-.983,4.384,4.384,0,0,1-.992-1.513A5.181,5.181,0,0,1,706.71,51.188Zm2.03-.7a8.2,8.2,0,0,0,.172,1.643,5.827,5.827,0,0,0,.53,1.513,3.43,3.43,0,0,0,.908,1.122,2.118,2.118,0,0,0,1.358.442,2.293,2.293,0,0,0,1.912-.862,3.485,3.485,0,0,0,.681-2.224,9.145,9.145,0,0,0-.163-1.676,6.032,6.032,0,0,0-.517-1.6,3.6,3.6,0,0,0-.929-1.21,2.136,2.136,0,0,0-1.4-.478,2.36,2.36,0,0,0-1.845.787A3.8,3.8,0,0,0,708.74,50.486Z" transform="translate(-492.91 -32.333)"/><path class="a" d="M750.107,41.043a9.878,9.878,0,0,1-3.37-.5,6.138,6.138,0,0,1-2.269-1.395,5.218,5.218,0,0,1-1.283-2.051,7.657,7.657,0,0,1-.405-2.5,10.539,10.539,0,0,1,.605-3.443,9.6,9.6,0,0,1,1.788-3.131,9.09,9.09,0,0,1,2.989-2.269,9.536,9.536,0,0,1,4.235-.874,13.009,13.009,0,0,1,2.42.221,18.473,18.473,0,0,1,2.3.59,13.532,13.532,0,0,0-.073,1.4,8.191,8.191,0,0,0,.036.959c.036.306.051.605.085.862a.871.871,0,0,1-.647.218.529.529,0,0,1-.6-.481,3.062,3.062,0,0,0-1.31-2.136,4.411,4.411,0,0,0-2.381-.626,5.067,5.067,0,0,0-2.65.7,6.284,6.284,0,0,0-1.969,1.855,8.966,8.966,0,0,0-1.234,2.708,12.013,12.013,0,0,0-.433,3.27,7.89,7.89,0,0,0,.3,2.3,5.352,5.352,0,0,0,.886,1.761,3.909,3.909,0,0,0,1.407,1.125,4.154,4.154,0,0,0,1.833.4,4.308,4.308,0,0,0,2.448-.672,5.092,5.092,0,0,0,1.706-2.184,1,1,0,0,1,.263-.324.762.762,0,0,1,.466-.1.992.992,0,0,1,.454.109,1.126,1.126,0,0,1,.287.182,12.942,12.942,0,0,0-.638,1.525,15.249,15.249,0,0,0-.526,1.994c-.384.079-.8.151-1.237.215s-.874.121-1.307.166-.835.085-1.21.109S750.37,41.043,750.107,41.043Z" transform="translate(-518.067 -17.345)"/><path class="a" d="M797.18,46.424l-.106-.027a10.231,10.231,0,0,1-2.587,3.419,4.119,4.119,0,0,1-2.375,1.044,3.464,3.464,0,0,1-.908-.121,1.927,1.927,0,0,1-.781-.421,2.238,2.238,0,0,1-.557-.8,3.329,3.329,0,0,1-.212-1.268A9.911,9.911,0,0,1,792.3,41.32a8.2,8.2,0,0,1,2.453-1.815,5.851,5.851,0,0,1,2.456-.605,14.418,14.418,0,0,1,1.715.106q.871.106,2.033.345l-1.77,8.922c-.018.088-.03.163-.039.224a.977.977,0,0,0,0,.145.209.209,0,0,0,.236.236,1.068,1.068,0,0,0,.384-.091,4.13,4.13,0,0,0,.436-.212c.139-.079.272-.148.4-.212a.7.7,0,0,1,.3-.091.366.366,0,0,1,.33.224,1.274,1.274,0,0,1,.145.436c-.281.194-.605.405-.992.632s-.765.442-1.159.635a10.252,10.252,0,0,1-1.162.487,3.062,3.062,0,0,1-.992.2,1.083,1.083,0,0,1-.684-.188.744.744,0,0,1-.239-.632,2.752,2.752,0,0,1,.133-.738Zm.687-6.284-.463-.106a2.375,2.375,0,0,0-.46-.051,2.722,2.722,0,0,0-1.691.581,4.992,4.992,0,0,0-1.319,1.588,8.954,8.954,0,0,0-.847,2.384,13.86,13.86,0,0,0-.3,2.992,4.071,4.071,0,0,0,.118,1.11.514.514,0,0,0,.542.4,1.473,1.473,0,0,0,.911-.427,6.132,6.132,0,0,0,1-1.165,13.922,13.922,0,0,0,.965-1.655,18.336,18.336,0,0,0,.817-1.918,13.866,13.866,0,0,0,.554-1.96A7.492,7.492,0,0,0,797.866,40.14Z" transform="translate(-550.761 -27.13)"/><path class="a" d="M838.59,41.318a1.38,1.38,0,0,0-.79.3,5.611,5.611,0,0,0-.886.817,9.642,9.642,0,0,0-.908,1.24,15.381,15.381,0,0,0-.874,1.543,7.156,7.156,0,0,0-.393.989c-.124.378-.236.768-.33,1.174a11.862,11.862,0,0,0-.227,1.189A7.936,7.936,0,0,0,834.1,49.6a3.5,3.5,0,0,0,.079.765c-.42.051-.847.115-1.28.185a11.894,11.894,0,0,0-1.385.3c-.3-.124-.448-.281-.448-.475a1.81,1.81,0,0,1,.024-.278,1.6,1.6,0,0,1,.055-.224l1.688-8.525a.511.511,0,0,0,.027-.278.13.13,0,0,0-.118-.088.672.672,0,0,0-.236.067l-.357.145c-.133.051-.263.1-.4.145a1.113,1.113,0,0,1-.33.064.384.384,0,0,1-.357-.236,2.146,2.146,0,0,1-.169-.451,12.454,12.454,0,0,1,1.171-.641c.46-.221.908-.424,1.361-.605s.856-.339,1.225-.463a3.024,3.024,0,0,1,.82-.185.8.8,0,0,1,.4.106.393.393,0,0,1,.185.369v.212a.685.685,0,0,1-.054.263l-.908,3.512.106.027a16.468,16.468,0,0,1,2.42-3.458A3.065,3.065,0,0,1,839.7,38.81a2.118,2.118,0,0,1,.66.106,1.144,1.144,0,0,1,.448.239,11.218,11.218,0,0,0-.684,2.877H839.6a1.842,1.842,0,0,0-.4-.5A.886.886,0,0,0,838.59,41.318Z" transform="translate(-579.529 -27.067)"/><path class="a" d="M871.765,41.288a2.86,2.86,0,0,1-.475,1.652,3.67,3.67,0,0,1-1.34,1.165,8.117,8.117,0,0,1-2.084.726,16.956,16.956,0,0,1-2.693.342c-.018.175-.033.345-.042.5s0,.327,0,.5a6.685,6.685,0,0,0,.094,1.134,2.911,2.911,0,0,0,.33.977,1.927,1.927,0,0,0,.647.687,1.891,1.891,0,0,0,1.041.263,4.169,4.169,0,0,0,1.15-.2,5.418,5.418,0,0,0,1.437-.7c.16-.106.3-.194.384-.263a.551.551,0,0,1,.33-.106.357.357,0,0,1,.357.278,1.512,1.512,0,0,1,.091.381,10.662,10.662,0,0,1-.856.7,7.444,7.444,0,0,1-1.162.7,9.228,9.228,0,0,1-1.4.538,5.322,5.322,0,0,1-1.543.227,4.323,4.323,0,0,1-1.982-.4,3.125,3.125,0,0,1-1.186-1.032,3.915,3.915,0,0,1-.581-1.4,7.385,7.385,0,0,1-.16-1.513,8.7,8.7,0,0,1,.462-2.8,8.069,8.069,0,0,1,1.316-2.449,6.854,6.854,0,0,1,2.039-1.74,5.343,5.343,0,0,1,2.638-.66,4.269,4.269,0,0,1,2.281.566A2.076,2.076,0,0,1,871.765,41.288Zm-3.691-1.422a1.512,1.512,0,0,0-.95.357,3.591,3.591,0,0,0-.817.965,6.736,6.736,0,0,0-.635,1.386,9.58,9.58,0,0,0-.4,1.649,6.392,6.392,0,0,0,1.77-.4,3.526,3.526,0,0,0,1.134-.7,2.42,2.42,0,0,0,.605-.908,3.139,3.139,0,0,0,.185-1.071,1.531,1.531,0,0,0-.251-.938A.781.781,0,0,0,868.074,39.867Z" transform="translate(-601.304 -27.068)"/></g></g></svg>